<svg xmlns="http://www.w3.org/2000/svg" xmlns:xlink="http://www.w3.org/1999/xlink" version="1.1" data-diagram-type="DESCRIPTION" style="width:1028px;height:1146px;background:#FFFFFF;" width="1028.333px" height="1146.667px" viewBox="0 0 1028 1146" zoomAndPan="magnify" preserveAspectRatio="none" contentStyleType="text/css"><?plantuml 1.2026.7?><defs/><g font-family="sans-serif" lengthAdjust="spacing"><g class="title" data-source-line="2"><text x="336.611" y="38.325" fill="#172033" font-size="23.333" textLength="344.314" font-weight="700" font-family="'Hiragino Sans GB'">Infrastructure Plane 组件图</text></g><!--cluster Infrastructure Plane--><g class="cluster" data-qualified-name="Infrastructure Plane" id="ent0002" data-source-line="6"><rect x="547.5" y="169.328" width="312.817" height="955" fill="#ECEFF3" style="stroke:#CBD5E1;stroke-width:1.667;" rx="10" ry="10"/><text x="570.813" y="194.32" fill="#172033" font-size="23.333" textLength="266.191" font-weight="700" font-family="'Hiragino Sans GB'">Infrastructure Plane</text></g><!--entity STATE--><g class="entity" data-qualified-name="Infrastructure Plane.STATE" id="ent0003" data-source-line="7"><rect x="610.717" y="1037.411" width="186.39" height="60.495" fill="#F1F1F1" style="stroke:#181818;stroke-width:0.833;" rx="10" ry="10"/><text x="627.383" y="1075.737" fill="#172033" font-size="23.333" textLength="153.057" font-family="'Hiragino Sans GB'">StateStorage</text></g><!--entity ARTIFACT--><g class="entity" data-qualified-name="Infrastructure Plane.ARTIFACT" id="ent0004" data-source-line="8"><rect x="598.75" y="902.411" width="210.304" height="60.495" fill="#F1F1F1" style="stroke:#181818;stroke-width:0.833;" rx="10" ry="10"/><text x="615.417" y="940.737" fill="#172033" font-size="23.333" textLength="176.971" font-family="'Hiragino Sans GB'">ArtifactStorage</text></g><!--entity PROCESS--><g class="entity" data-qualified-name="Infrastructure Plane.PROCESS" id="ent0005" data-source-line="9"><rect x="574.167" y="767.411" width="259.489" height="60.495" fill="#F1F1F1" style="stroke:#181818;stroke-width:0.833;" rx="10" ry="10"/><text x="590.833" y="805.737" fill="#172033" font-size="23.333" textLength="226.156" font-family="'Hiragino Sans GB'">Process / Container</text></g><!--entity TRANSPORT--><g class="entity" data-qualified-name="Infrastructure Plane.TRANSPORT" id="ent0006" data-source-line="10"><rect x="630.783" y="632.411" width="146.252" height="60.495" fill="#F1F1F1" style="stroke:#181818;stroke-width:0.833;" rx="10" ry="10"/><text x="647.45" y="670.737" fill="#172033" font-size="23.333" textLength="112.918" font-family="'Hiragino Sans GB'">Transport</text></g><!--entity EGRESS--><g class="entity" data-qualified-name="Infrastructure Plane.EGRESS" id="ent0007" data-source-line="11"><rect x="613.3" y="497.411" width="181.206" height="60.495" fill="#F1F1F1" style="stroke:#181818;stroke-width:0.833;" rx="10" ry="10"/><text x="629.967" y="535.737" fill="#172033" font-size="23.333" textLength="147.873" font-family="'Hiragino Sans GB'">ModelEgress</text></g><!--entity SECRET--><g class="entity" data-qualified-name="Infrastructure Plane.SECRET" id="ent0008" data-source-line="12"><rect x="599.083" y="362.411" width="209.666" height="60.495" fill="#F1F1F1" style="stroke:#181818;stroke-width:0.833;" rx="10" ry="10"/><text x="615.75" y="400.737" fill="#172033" font-size="23.333" textLength="176.333" font-family="'Hiragino Sans GB'">SecretResolver</text></g><!--entity CLOCK--><g class="entity" data-qualified-name="Infrastructure Plane.CLOCK" id="ent0009" data-source-line="13"><rect x="615.283" y="227.411" width="177.241" height="60.495" fill="#F1F1F1" style="stroke:#181818;stroke-width:0.833;" rx="10" ry="10"/><text x="631.95" y="265.737" fill="#172033" font-size="23.333" textLength="143.908" font-family="'Hiragino Sans GB'">Clock / Time</text></g><!--entity KERNEL--><g class="entity" data-qualified-name="KERNEL" id="ent0001" data-source-line="5"><rect x="21.267" y="632.411" width="290.672" height="60.495" fill="#F8FAFC" style="stroke:#181818;stroke-width:0.833;" rx="10" ry="10"/><text x="37.933" y="670.737" fill="#172033" font-size="23.333" textLength="257.339" font-family="'Hiragino Sans GB'">Kernel / L4 Port 调用方</text></g><g class="entity" data-qualified-name="GMN17" id="ent0018" data-source-line="25"><path d="M403.6,82.161 L403.6,133.151 A10,10 0 0 0 413.6,143.151 L994.204,143.151 A10,10 0 0 0 1004.204,133.151 L1004.204,88.828 L987.537,72.161 L413.6,72.161 A10,10 0 0 0 403.6,82.161" style="stroke:#D97706;stroke-width:0.833;" fill="#FFFBEB"/><path d="M987.537,72.161 L987.537,83.828 A5,5 0 0 0 992.537,88.828 L1004.204,88.828 L987.537,72.161" style="stroke:#D97706;stroke-width:1.667;" fill="#FFFBEB"/><text x="413.6" y="102.153" fill="#172033" font-size="23.333" textLength="537.292" font-family="'Hiragino Sans GB'">Infrastructure 只返回机制结果和不透明 Handle；</text><text x="413.6" y="129.315" fill="#172033" font-size="23.333" textLength="565.604" font-family="'Hiragino Sans GB'">不定义 Agent、Run、调度、权限、工具或业务规则。</text></g><!--link KERNEL to STATE--><g class="link" data-entity-1="ent0001" data-entity-2="ent0003" id="lnk10" data-source-line="16" data-link-type="dependency"><path d="M117.55,693.095 C117.55,787.295 117.55,1067.661 117.55,1067.661 C117.55,1067.661 436.467,1067.661 602.017,1067.661" style="stroke:#334155;stroke-width:1.667;" fill="none" id="KERNEL-to-STATE"/><polygon points="610.35,1067.661,595.35,1060.995,602.017,1067.661,595.35,1074.328,610.35,1067.661" fill="#334155" style="stroke:#334155;stroke-width:1.667;stroke-linejoin:miter;stroke-miterlimit:10;"/><text x="11.667" y="1087.893" fill="#172033" font-size="20" textLength="164.385" font-family="'Hiragino Sans GB'">Repository Ports</text></g><!--link KERNEL to ARTIFACT--><g class="link" data-entity-1="ent0001" data-entity-2="ent0004" id="lnk11" data-source-line="17" data-link-type="dependency"><path d="M215.883,693.628 C215.883,764.561 215.883,932.661 215.883,932.661 C215.883,932.661 446.15,932.661 589.683,932.661" style="stroke:#334155;stroke-width:1.667;" fill="none" id="KERNEL-to-ARTIFACT"/><polygon points="598.017,932.661,583.017,925.995,589.683,932.661,583.017,939.328,598.017,932.661" fill="#334155" style="stroke:#334155;stroke-width:1.667;stroke-linejoin:miter;stroke-miterlimit:10;"/><text x="172.433" y="952.893" fill="#172033" font-size="20" textLength="113.799" font-family="'Hiragino Sans GB'">ArtifactPort</text></g><!--link KERNEL to PROCESS--><g class="link" data-entity-1="ent0001" data-entity-2="ent0005" id="lnk12" data-source-line="18" data-link-type="dependency"><path d="M312.65,680.811 C433.667,680.811 585.883,680.811 585.883,680.811 C585.883,680.811 585.883,724.011 585.883,758.628" style="stroke:#334155;stroke-width:1.667;" fill="none" id="KERNEL-to-PROCESS"/><polygon points="585.883,766.961,592.55,751.961,585.883,758.628,579.217,751.961,585.883,766.961" fill="#334155" style="stroke:#334155;stroke-width:1.667;stroke-linejoin:miter;stroke-miterlimit:10;"/><text x="240.683" y="701.043" fill="#172033" font-size="20" textLength="250.986" font-family="'Hiragino Sans GB'">Process / Container Ports</text></g><!--link KERNEL to TRANSPORT--><g class="link" data-entity-1="ent0001" data-entity-2="ent0006" id="lnk13" data-source-line="19" data-link-type="dependency"><path d="M312.717,668.711 C415.583,668.711 540.6,668.711 622.033,668.711" style="stroke:#334155;stroke-width:1.667;" fill="none" id="KERNEL-to-TRANSPORT"/><polygon points="630.367,668.711,615.367,662.045,622.033,668.711,615.367,675.378,630.367,668.711" fill="#334155" style="stroke:#334155;stroke-width:1.667;stroke-linejoin:miter;stroke-miterlimit:10;"/><text x="333.217" y="663.943" fill="#172033" font-size="20" textLength="137.148" font-family="'Hiragino Sans GB'">TransportPort</text></g><!--link KERNEL to EGRESS--><g class="link" data-entity-1="ent0001" data-entity-2="ent0007" id="lnk14" data-source-line="20" data-link-type="dependency"><path d="M312.75,656.611 C446.1,656.611 622.55,656.611 622.55,656.611 C622.55,656.611 622.55,604.695 622.55,566.561" style="stroke:#334155;stroke-width:1.667;" fill="none" id="KERNEL-to-EGRESS"/><polygon points="622.55,558.228,615.883,573.228,622.55,566.561,629.217,573.228,622.55,558.228" fill="#334155" style="stroke:#334155;stroke-width:1.667;stroke-linejoin:miter;stroke-miterlimit:10;"/><text x="518.5" y="651.843" fill="#172033" font-size="20" textLength="167.109" font-family="'Hiragino Sans GB'">ModelEgressPort</text></g><!--link KERNEL to SECRET--><g class="link" data-entity-1="ent0001" data-entity-2="ent0008" id="lnk15" data-source-line="21" data-link-type="dependency"><path d="M312.267,644.511 C440.133,644.511 605.883,644.511 605.883,644.511 C605.883,644.511 605.883,499.128 605.883,431.878" style="stroke:#334155;stroke-width:1.667;" fill="none" id="KERNEL-to-SECRET"/><polygon points="605.883,423.545,599.217,438.545,605.883,431.878,612.55,438.545,605.883,423.545" fill="#334155" style="stroke:#334155;stroke-width:1.667;stroke-linejoin:miter;stroke-miterlimit:10;"/><text x="377.883" y="639.743" fill="#172033" font-size="20" textLength="191.504" font-family="'Hiragino Sans GB'">SecretResolverPort</text></g><!--link KERNEL to CLOCK--><g class="link" data-entity-1="ent0001" data-entity-2="ent0009" id="lnk16" data-source-line="22" data-link-type="dependency"><path d="M165.883,632.228 C165.883,538.028 165.883,257.661 165.883,257.661 C165.883,257.661 453.133,257.661 606.133,257.661" style="stroke:#334155;stroke-width:1.667;" fill="none" id="KERNEL-to-CLOCK"/><polygon points="614.467,257.661,599.467,250.995,606.133,257.661,599.467,264.328,614.467,257.661" fill="#334155" style="stroke:#334155;stroke-width:1.667;stroke-linejoin:miter;stroke-miterlimit:10;"/><text x="107.883" y="277.893" fill="#172033" font-size="20" textLength="94.697" font-family="'Hiragino Sans GB'">ClockPort</text></g><!--link STATE to GMN17--><g class="link" data-entity-1="ent0003" data-entity-2="ent0018" id="lnk19" data-source-line="25" data-link-type="association"><path d="M797.717,1067.661 C855.733,1067.661 919.217,1067.661 919.217,1067.661 C919.217,1067.661 919.217,317.828 919.217,143.545" style="stroke:#334155;stroke-width:1.667;stroke-dasharray:11.667,11.667;" fill="none" id="STATE-GMN17"/></g><?plantuml-src RP9DRzD048Rl-ok6t9jUE750iYmNeeGaMhiIDsISIMhLsOtM6oI4a08jKa104QsgjYcLEF0X3eXJluBWnpJhf2V-0XCdZHAt5slaVUQTVT-TMw48edOD8PzVrclOn7ohtOoO3dM4K11rvSTQjGFTLWZLo1S8m_xce7ziUdzOX7KDMe8A6siQQg72G8TIC3OkVD4WXLmHbS08bg5q6wfIQHZzsXZkV4zsptBWnr1qUDafGSb-v3pqgBPAhEK7wtw3Mc-QdXkZXV8AjroFhzhUAdVW6GC8PBCb1GeDELVx6bqj5OcaCrpFyfn5nb8whFk1diSixXLMBDjR9AjA1XZ7PC2MGlkXG9NILLwn7TTTX3tbYxX5BbF4urRPhLPuHl61h67aD1IfffXpZryJSZ5Gg3d6Cdeo7UWwDdSoKdOaWtMwcXSs9nxiKiKkikUCJNDTMhexiGztW6DBnY4PVfe-H3pFN7adx2gQCJEFJ0qJSKCarnLdvgbX5ajMSsATYBbCiip4Dp6BcMInr3bHQIJf8HDI8poMMiicoFfi3J9hPRP-ZFxkcDvHSdXkkiV3_dPoT6W-lXsSlhliR2Lxx-6-BseH_llTesRwQtuU3CvUWzMW9xZelE1jGL_QQdF-bOhaqyRb_WSgpCaNy-eawUuEJW_Ccy-ZRvkckt_HUSbGr61yjVy0?></g></svg>