<svg xmlns="http://www.w3.org/2000/svg" xmlns:xlink="http://www.w3.org/1999/xlink" version="1.1" data-diagram-type="CLASS" style="width:2606px;height:1176px;background:#FFFFFF;" width="2606.667px" height="1176.667px" viewBox="0 0 2606 1176" zoomAndPan="magnify" preserveAspectRatio="none" contentStyleType="text/css"><?plantuml 1.2026.7?><defs/><g font-family="sans-serif" lengthAdjust="spacing"><g class="title" data-source-line="2"><text x="1109.751" y="38.325" fill="#172033" font-size="23.333" textLength="376.807" font-weight="700" font-family="'Hiragino Sans GB'">PEP：复用协议，各执行点保有事实</text></g><!--cluster L1 业务执行宿主--><g class="cluster" data-qualified-name="L1 ......" id="ent0001" data-source-line="4"><rect x="538.617" y="73.828" width="413.333" height="333.333" fill="none" style="stroke:#CBD5E1;stroke-width:2.5;" rx="10" ry="10"/><text x="655.67" y="98.82" fill="#172033" font-size="23.333" textLength="179.226" font-weight="700" font-family="'Hiragino Sans GB'">L1 业务执行宿主</text></g><!--cluster L3 ToolCallRuntime--><g class="cluster" data-qualified-name="L3 ToolCallRuntime" id="ent0006" data-source-line="10"><rect x="796.95" y="485.495" width="1241.667" height="492.467" fill="none" style="stroke:#CBD5E1;stroke-width:2.5;" rx="10" ry="10"/><text x="1290.51" y="510.487" fill="#172033" font-size="23.333" textLength="254.548" font-weight="700" font-family="'Hiragino Sans GB'">L3 ToolCallRuntime</text></g><!--class L1ProposalFreezer--><g class="entity" data-qualified-name="L1 .......L1ProposalFreezer" id="ent0002" data-source-line="5"><rect x="612.417" y="132.161" width="265.731" height="76.667" fill="#F1F1F1" style="stroke:#181818;stroke-width:0.833;" rx="10" ry="10"/><ellipse cx="635.75" cy="157.161" rx="16.667" ry="16.667" fill="#ADD1B2" style="stroke:#181818;stroke-width:1.667;"/><path d="M639.734,165 Q638.927,165.417 638.042,165.625 Q637.182,165.833 636.219,165.833 Q632.781,165.833 630.958,163.568 Q629.161,161.302 629.161,157.005 Q629.161,152.708 630.958,150.443 Q632.781,148.177 636.219,148.177 Q637.182,148.177 638.068,148.385 Q638.953,148.594 639.734,148.984 L639.734,152.734 Q638.875,151.927 638.042,151.563 Q637.234,151.198 636.375,151.198 Q634.526,151.198 633.589,152.656 Q632.651,154.115 632.651,157.005 Q632.651,159.87 633.589,161.354 Q634.526,162.813 636.375,162.813 Q637.234,162.813 638.042,162.448 Q638.875,162.057 639.734,161.276 L639.734,165 Z " fill="#172033"/><text x="657.417" y="165.239" fill="#172033" font-size="23.333" textLength="215.731" font-family="'Hiragino Sans GB'">L1ProposalFreezer</text><line x1="614.083" y1="182.161" x2="876.481" y2="182.161" style="stroke:#181818;stroke-width:0.833;"/><line x1="614.083" y1="195.495" x2="876.481" y2="195.495" style="stroke:#181818;stroke-width:0.833;"/></g><!--class DecisionOutcomeHandlers--><g class="entity" data-qualified-name="L1 .......DecisionOutcomeHandlers" id="ent0003" data-source-line="6"><rect x="565.367" y="303.828" width="359.862" height="76.667" fill="#F1F1F1" style="stroke:#181818;stroke-width:0.833;" rx="10" ry="10"/><ellipse cx="588.7" cy="328.828" rx="16.667" ry="16.667" fill="#ADD1B2" style="stroke:#181818;stroke-width:1.667;"/><path d="M592.684,336.667 Q591.877,337.083 590.992,337.292 Q590.132,337.5 589.169,337.5 Q585.731,337.5 583.908,335.234 Q582.111,332.969 582.111,328.672 Q582.111,324.375 583.908,322.109 Q585.731,319.844 589.169,319.844 Q590.132,319.844 591.018,320.052 Q591.903,320.26 592.684,320.651 L592.684,324.401 Q591.825,323.594 590.992,323.229 Q590.184,322.865 589.325,322.865 Q587.476,322.865 586.539,324.323 Q585.601,325.781 585.601,328.672 Q585.601,331.536 586.539,333.021 Q587.476,334.479 589.325,334.479 Q590.184,334.479 590.992,334.115 Q591.825,333.724 592.684,332.943 L592.684,336.667 Z " fill="#172033"/><text x="610.367" y="336.906" fill="#172033" font-size="23.333" textLength="309.862" font-family="'Hiragino Sans GB'">DecisionOutcomeHandlers</text><line x1="567.033" y1="353.828" x2="923.562" y2="353.828" style="stroke:#181818;stroke-width:0.833;"/><line x1="567.033" y1="367.161" x2="923.562" y2="367.161" style="stroke:#181818;stroke-width:0.833;"/></g><!--class ResolvedActionVerifier--><g class="entity" data-qualified-name="L3 ToolCallRuntime.ResolvedActionVerifier" id="ent0007" data-source-line="11"><rect x="822.8" y="557.395" width="314.984" height="76.667" fill="#F1F1F1" style="stroke:#181818;stroke-width:0.833;" rx="10" ry="10"/><ellipse cx="846.133" cy="582.395" rx="16.667" ry="16.667" fill="#ADD1B2" style="stroke:#181818;stroke-width:1.667;"/><path d="M850.118,590.233 Q849.31,590.65 848.425,590.858 Q847.566,591.067 846.602,591.067 Q843.165,591.067 841.342,588.801 Q839.545,586.535 839.545,582.239 Q839.545,577.942 841.342,575.676 Q843.165,573.41 846.602,573.41 Q847.566,573.41 848.451,573.619 Q849.336,573.827 850.118,574.218 L850.118,577.968 Q849.258,577.16 848.425,576.796 Q847.618,576.431 846.758,576.431 Q844.909,576.431 843.972,577.89 Q843.034,579.348 843.034,582.239 Q843.034,585.103 843.972,586.588 Q844.909,588.046 846.758,588.046 Q847.618,588.046 848.425,587.681 Q849.258,587.291 850.118,586.509 L850.118,590.233 Z " fill="#172033"/><text x="867.8" y="590.473" fill="#172033" font-size="23.333" textLength="264.984" font-family="'Hiragino Sans GB'">ResolvedActionVerifier</text><line x1="824.467" y1="607.395" x2="1136.117" y2="607.395" style="stroke:#181818;stroke-width:0.833;"/><line x1="824.467" y1="620.728" x2="1136.117" y2="620.728" style="stroke:#181818;stroke-width:0.833;"/></g><!--class PermitClient--><g class="entity" data-qualified-name="L3 ToolCallRuntime.PermitClient" id="ent0008" data-source-line="12"><rect x="899.983" y="820.311" width="193.931" height="76.667" fill="#F1F1F1" style="stroke:#181818;stroke-width:0.833;" rx="10" ry="10"/><ellipse cx="923.317" cy="845.311" rx="16.667" ry="16.667" fill="#ADD1B2" style="stroke:#181818;stroke-width:1.667;"/><path d="M927.301,853.15 Q926.494,853.567 925.608,853.775 Q924.749,853.983 923.785,853.983 Q920.348,853.983 918.525,851.718 Q916.728,849.452 916.728,845.155 Q916.728,840.858 918.525,838.593 Q920.348,836.327 923.785,836.327 Q924.749,836.327 925.634,836.535 Q926.52,836.744 927.301,837.134 L927.301,840.884 Q926.442,840.077 925.608,839.713 Q924.801,839.348 923.942,839.348 Q922.093,839.348 921.155,840.806 Q920.218,842.265 920.218,845.155 Q920.218,848.02 921.155,849.504 Q922.093,850.963 923.942,850.963 Q924.801,850.963 925.608,850.598 Q926.442,850.207 927.301,849.426 L927.301,853.15 Z " fill="#172033"/><text x="944.983" y="853.389" fill="#172033" font-size="23.333" textLength="143.931" font-family="'Hiragino Sans GB'">PermitClient</text><line x1="901.65" y1="870.311" x2="1092.247" y2="870.311" style="stroke:#181818;stroke-width:0.833;"/><line x1="901.65" y1="883.645" x2="1092.247" y2="883.645" style="stroke:#181818;stroke-width:0.833;"/></g><!--class ExecutionStarter--><g class="entity" data-qualified-name="L3 ToolCallRuntime.ExecutionStarter" id="ent0009" data-source-line="13"><rect x="1585.4" y="543.828" width="426.453" height="103.828" fill="#F1F1F1" style="stroke:#181818;stroke-width:0.833;" rx="10" ry="10"/><ellipse cx="1693.876" cy="568.828" rx="16.667" ry="16.667" fill="#ADD1B2" style="stroke:#181818;stroke-width:1.667;"/><path d="M1697.86,576.667 Q1697.053,577.083 1696.167,577.292 Q1695.308,577.5 1694.344,577.5 Q1690.907,577.5 1689.084,575.234 Q1687.287,572.969 1687.287,568.672 Q1687.287,564.375 1689.084,562.109 Q1690.907,559.844 1694.344,559.844 Q1695.308,559.844 1696.193,560.052 Q1697.079,560.26 1697.86,560.651 L1697.86,564.401 Q1697.001,563.594 1696.167,563.229 Q1695.36,562.865 1694.501,562.865 Q1692.652,562.865 1691.714,564.323 Q1690.777,565.781 1690.777,568.672 Q1690.777,571.536 1691.714,573.021 Q1692.652,574.479 1694.501,574.479 Q1695.36,574.479 1696.167,574.115 Q1697.001,573.724 1697.86,572.943 L1697.86,576.667 Z " fill="#172033"/><text x="1725.542" y="576.906" fill="#172033" font-size="23.333" textLength="196.169" font-family="'Hiragino Sans GB'">ExecutionStarter</text><line x1="1587.067" y1="593.828" x2="2010.187" y2="593.828" style="stroke:#181818;stroke-width:0.833;"/><line x1="1587.067" y1="607.161" x2="2010.187" y2="607.161" style="stroke:#181818;stroke-width:0.833;"/><text x="1595.4" y="635.487" fill="#172033" font-size="23.333" textLength="406.453" font-family="'Hiragino Sans GB'">startOnce(grant, expectedVersion)</text></g><!--class ReconciliationReader--><g class="entity" data-qualified-name="L3 ToolCallRuntime.ReconciliationReader" id="ent0010" data-source-line="16"><rect x="1213.283" y="557.395" width="297.358" height="76.667" fill="#F1F1F1" style="stroke:#181818;stroke-width:0.833;" rx="10" ry="10"/><ellipse cx="1236.617" cy="582.395" rx="16.667" ry="16.667" fill="#ADD1B2" style="stroke:#181818;stroke-width:1.667;"/><path d="M1240.601,590.233 Q1239.794,590.65 1238.908,590.858 Q1238.049,591.067 1237.085,591.067 Q1233.648,591.067 1231.825,588.801 Q1230.028,586.535 1230.028,582.239 Q1230.028,577.942 1231.825,575.676 Q1233.648,573.41 1237.085,573.41 Q1238.049,573.41 1238.934,573.619 Q1239.82,573.827 1240.601,574.218 L1240.601,577.968 Q1239.742,577.16 1238.908,576.796 Q1238.101,576.431 1237.242,576.431 Q1235.393,576.431 1234.455,577.89 Q1233.518,579.348 1233.518,582.239 Q1233.518,585.103 1234.455,586.588 Q1235.393,588.046 1237.242,588.046 Q1238.101,588.046 1238.908,587.681 Q1239.742,587.291 1240.601,586.509 L1240.601,590.233 Z " fill="#172033"/><text x="1258.283" y="590.473" fill="#172033" font-size="23.333" textLength="247.358" font-family="'Hiragino Sans GB'">ReconciliationReader</text><line x1="1214.95" y1="607.395" x2="1508.975" y2="607.395" style="stroke:#181818;stroke-width:0.833;"/><line x1="1214.95" y1="620.728" x2="1508.975" y2="620.728" style="stroke:#181818;stroke-width:0.833;"/></g><!--class ToolCall--><g class="entity" data-qualified-name="L3 ToolCallRuntime.ToolCall" id="ent0011" data-source-line="17"><rect x="1487.433" y="765.978" width="179.038" height="185.313" fill="#F1F1F1" style="stroke:#181818;stroke-width:0.833;" rx="10" ry="10"/><ellipse cx="1527.054" cy="790.978" rx="16.667" ry="16.667" fill="#ADD1B2" style="stroke:#181818;stroke-width:1.667;"/><path d="M1531.039,798.817 Q1530.231,799.233 1529.346,799.442 Q1528.487,799.65 1527.523,799.65 Q1524.086,799.65 1522.263,797.384 Q1520.466,795.119 1520.466,790.822 Q1520.466,786.525 1522.263,784.259 Q1524.086,781.994 1527.523,781.994 Q1528.487,781.994 1529.372,782.202 Q1530.257,782.41 1531.039,782.801 L1531.039,786.551 Q1530.179,785.744 1529.346,785.379 Q1528.539,785.015 1527.679,785.015 Q1525.83,785.015 1524.893,786.473 Q1523.955,787.931 1523.955,790.822 Q1523.955,793.686 1524.893,795.171 Q1525.83,796.629 1527.679,796.629 Q1528.539,796.629 1529.346,796.265 Q1530.179,795.874 1531.039,795.093 L1531.039,798.817 Z " fill="#172033"/><text x="1552.34" y="799.056" fill="#172033" font-size="23.333" textLength="92.843" font-family="'Hiragino Sans GB'">ToolCall</text><line x1="1489.1" y1="815.978" x2="1664.805" y2="815.978" style="stroke:#181818;stroke-width:0.833;"/><text x="1497.433" y="844.303" fill="#172033" font-size="23.333" textLength="70.41" font-family="'Hiragino Sans GB'">phase</text><text x="1497.433" y="871.465" fill="#172033" font-size="23.333" textLength="85.461" font-family="'Hiragino Sans GB'">version</text><text x="1497.433" y="898.626" fill="#172033" font-size="23.333" textLength="120.358" font-family="'Hiragino Sans GB'">receiptRef</text><text x="1497.433" y="925.788" fill="#172033" font-size="23.333" textLength="159.038" font-family="'Hiragino Sans GB'">startGrantRef</text><line x1="1489.1" y1="937.957" x2="1664.805" y2="937.957" style="stroke:#181818;stroke-width:0.833;"/></g><!--class PermissionDecisionPort--><g class="entity" data-qualified-name="PermissionDecisionPort" id="ent0004" data-source-line="8"><rect x="423.533" y="557.395" width="323.517" height="76.667" fill="#F1F1F1" style="stroke:#181818;stroke-width:0.833;" rx="10" ry="10"/><ellipse cx="446.867" cy="582.395" rx="16.667" ry="16.667" fill="#B4A7E5" style="stroke:#181818;stroke-width:1.667;"/><path d="M442.153,576.692 L442.153,573.723 L452.283,573.723 L452.283,576.692 L448.898,576.692 L448.898,587.759 L452.283,587.759 L452.283,590.728 L442.153,590.728 L442.153,587.759 L445.539,587.759 L445.539,576.692 L442.153,576.692 Z " fill="#172033"/><text x="468.533" y="590.473" fill="#172033" font-size="23.333" textLength="273.517" font-style="italic" font-family="'Hiragino Sans GB'">PermissionDecisionPort</text><line x1="425.2" y1="607.395" x2="745.384" y2="607.395" style="stroke:#181818;stroke-width:0.833;"/><line x1="425.2" y1="620.728" x2="745.384" y2="620.728" style="stroke:#181818;stroke-width:0.833;"/></g><!--class PermitValidationPort--><g class="entity" data-qualified-name="PermitValidationPort" id="ent0005" data-source-line="9"><rect x="458.367" y="1076.295" width="290.5" height="76.667" fill="#F1F1F1" style="stroke:#181818;stroke-width:0.833;" rx="10" ry="10"/><ellipse cx="481.7" cy="1101.295" rx="16.667" ry="16.667" fill="#B4A7E5" style="stroke:#181818;stroke-width:1.667;"/><path d="M476.986,1095.592 L476.986,1092.623 L487.117,1092.623 L487.117,1095.592 L483.731,1095.592 L483.731,1106.659 L487.117,1106.659 L487.117,1109.628 L476.986,1109.628 L476.986,1106.659 L480.372,1106.659 L480.372,1095.592 L476.986,1095.592 Z " fill="#172033"/><text x="503.367" y="1109.373" fill="#172033" font-size="23.333" textLength="240.5" font-style="italic" font-family="'Hiragino Sans GB'">PermitValidationPort</text><line x1="460.033" y1="1126.295" x2="747.2" y2="1126.295" style="stroke:#181818;stroke-width:0.833;"/><line x1="460.033" y1="1139.628" x2="747.2" y2="1139.628" style="stroke:#181818;stroke-width:0.833;"/></g><!--class ToolProviderPort--><g class="entity" data-qualified-name="ToolProviderPort" id="ent0012" data-source-line="24"><rect x="2065.267" y="820.311" width="243.366" height="76.667" fill="#F1F1F1" style="stroke:#181818;stroke-width:0.833;" rx="10" ry="10"/><ellipse cx="2088.6" cy="845.311" rx="16.667" ry="16.667" fill="#B4A7E5" style="stroke:#181818;stroke-width:1.667;"/><path d="M2083.886,839.608 L2083.886,836.64 L2094.017,836.64 L2094.017,839.608 L2090.631,839.608 L2090.631,850.676 L2094.017,850.676 L2094.017,853.645 L2083.886,853.645 L2083.886,850.676 L2087.272,850.676 L2087.272,839.608 L2083.886,839.608 Z " fill="#172033"/><text x="2110.267" y="853.389" fill="#172033" font-size="23.333" textLength="193.366" font-style="italic" font-family="'Hiragino Sans GB'">ToolProviderPort</text><line x1="2066.933" y1="870.311" x2="2306.966" y2="870.311" style="stroke:#181818;stroke-width:0.833;"/><line x1="2066.933" y1="883.645" x2="2306.966" y2="883.645" style="stroke:#181818;stroke-width:0.833;"/></g><!--class SandboxPort--><g class="entity" data-qualified-name="SandboxPort" id="ent0013" data-source-line="25"><rect x="2384.283" y="820.311" width="198.693" height="76.667" fill="#F1F1F1" style="stroke:#181818;stroke-width:0.833;" rx="10" ry="10"/><ellipse cx="2407.617" cy="845.311" rx="16.667" ry="16.667" fill="#B4A7E5" style="stroke:#181818;stroke-width:1.667;"/><path d="M2402.903,839.608 L2402.903,836.64 L2413.033,836.64 L2413.033,839.608 L2409.648,839.608 L2409.648,850.676 L2413.033,850.676 L2413.033,853.645 L2402.903,853.645 L2402.903,850.676 L2406.289,850.676 L2406.289,839.608 L2402.903,839.608 Z " fill="#172033"/><text x="2429.283" y="853.389" fill="#172033" font-size="23.333" textLength="148.693" font-style="italic" font-family="'Hiragino Sans GB'">SandboxPort</text><line x1="2385.95" y1="870.311" x2="2581.31" y2="870.311" style="stroke:#181818;stroke-width:0.833;"/><line x1="2385.95" y1="883.645" x2="2581.31" y2="883.645" style="stroke:#181818;stroke-width:0.833;"/></g><!--class MemoryExecutionPEP--><g class="entity" data-qualified-name="MemoryExecutionPEP" id="ent0014" data-source-line="26"><rect x="435.45" y="820.311" width="302.998" height="76.667" fill="#F1F1F1" style="stroke:#181818;stroke-width:0.833;" rx="10" ry="10"/><ellipse cx="458.783" cy="845.311" rx="16.667" ry="16.667" fill="#ADD1B2" style="stroke:#181818;stroke-width:1.667;"/><path d="M462.768,853.15 Q461.96,853.567 461.075,853.775 Q460.216,853.983 459.252,853.983 Q455.815,853.983 453.992,851.718 Q452.195,849.452 452.195,845.155 Q452.195,840.858 453.992,838.593 Q455.815,836.327 459.252,836.327 Q460.216,836.327 461.101,836.535 Q461.986,836.744 462.768,837.134 L462.768,840.884 Q461.908,840.077 461.075,839.713 Q460.268,839.348 459.408,839.348 Q457.559,839.348 456.622,840.806 Q455.684,842.265 455.684,845.155 Q455.684,848.02 456.622,849.504 Q457.559,850.963 459.408,850.963 Q460.268,850.963 461.075,850.598 Q461.908,850.207 462.768,849.426 L462.768,853.15 Z " fill="#172033"/><text x="480.45" y="853.389" fill="#172033" font-size="23.333" textLength="252.998" font-family="'Hiragino Sans GB'">MemoryExecutionPEP</text><line x1="437.117" y1="870.311" x2="736.781" y2="870.311" style="stroke:#181818;stroke-width:0.833;"/><line x1="437.117" y1="883.645" x2="736.781" y2="883.645" style="stroke:#181818;stroke-width:0.833;"/></g><!--class ChildAdmissionPEP--><g class="entity" data-qualified-name="ChildAdmissionPEP" id="ent0015" data-source-line="27"><rect x="67.833" y="820.311" width="271.587" height="76.667" fill="#F1F1F1" style="stroke:#181818;stroke-width:0.833;" rx="10" ry="10"/><ellipse cx="91.167" cy="845.311" rx="16.667" ry="16.667" fill="#ADD1B2" style="stroke:#181818;stroke-width:1.667;"/><path d="M95.151,853.15 Q94.344,853.567 93.458,853.775 Q92.599,853.983 91.635,853.983 Q88.198,853.983 86.375,851.718 Q84.578,849.452 84.578,845.155 Q84.578,840.858 86.375,838.593 Q88.198,836.327 91.635,836.327 Q92.599,836.327 93.484,836.535 Q94.37,836.744 95.151,837.134 L95.151,840.884 Q94.292,840.077 93.458,839.713 Q92.651,839.348 91.792,839.348 Q89.943,839.348 89.005,840.806 Q88.068,842.265 88.068,845.155 Q88.068,848.02 89.005,849.504 Q89.943,850.963 91.792,850.963 Q92.651,850.963 93.458,850.598 Q94.292,850.207 95.151,849.426 L95.151,853.15 Z " fill="#172033"/><text x="112.833" y="853.389" fill="#172033" font-size="23.333" textLength="221.587" font-family="'Hiragino Sans GB'">ChildAdmissionPEP</text><line x1="69.5" y1="870.311" x2="337.754" y2="870.311" style="stroke:#181818;stroke-width:0.833;"/><line x1="69.5" y1="883.645" x2="337.754" y2="883.645" style="stroke:#181818;stroke-width:0.833;"/></g><g class="entity" data-qualified-name="GMN28" id="ent0029" data-source-line="41"><path d="M10,1089.128 L10,1140.118 A10,10 0 0 0 20,1150.118 L373.913,1150.118 A10,10 0 0 0 383.913,1140.118 L383.913,1095.795 L367.246,1079.128 L204.533,1079.128 L202.633,897.578 L191.2,1079.128 L20,1079.128 A10,10 0 0 0 10,1089.128" style="stroke:#D97706;stroke-width:0.833;" fill="#FFFBEB"/><path d="M367.246,1079.128 L367.246,1090.795 A5,5 0 0 0 372.246,1095.795 L383.913,1095.795 L367.246,1079.128" style="stroke:#D97706;stroke-width:0.833;" fill="#FFFBEB"/><text x="20" y="1109.12" fill="#172033" font-size="23.333" textLength="338.913" font-family="'Hiragino Sans GB'">FE 拥有关联、取消、受理与恢复</text><text x="20" y="1136.281" fill="#172033" font-size="23.333" textLength="272.651" font-family="'Hiragino Sans GB'">跨 Flow DTO 仍待 SR-04</text></g><g class="entity" data-qualified-name="GMN31" id="ent0032" data-source-line="45"><path d="M839.367,1089.128 L839.367,1140.118 A10,10 0 0 0 849.367,1150.118 L1174.558,1150.118 A10,10 0 0 0 1184.558,1140.118 L1184.558,1095.795 L1167.891,1079.128 L1016.6,1079.128 L999.167,897.578 L1003.267,1079.128 L849.367,1079.128 A10,10 0 0 0 839.367,1089.128" style="stroke:#D97706;stroke-width:0.833;" fill="#FFFBEB"/><path d="M1167.891,1079.128 L1167.891,1090.795 A5,5 0 0 0 1172.891,1095.795 L1184.558,1095.795 L1167.891,1079.128" style="stroke:#D97706;stroke-width:0.833;" fill="#FFFBEB"/><text x="849.367" y="1109.12" fill="#172033" font-size="23.333" textLength="310.191" font-family="'Hiragino Sans GB'">不依赖 PDP；不做第二次裁决</text><text x="849.367" y="1136.281" fill="#172033" font-size="23.333" textLength="279.999" font-family="'Hiragino Sans GB'">不缓存旧成功作为新执行权</text></g><!--link L1ProposalFreezer to DecisionOutcomeHandlers--><g class="link" data-entity-1="ent0002" data-entity-2="ent0003" id="lnk16" data-source-line="28" data-link-type="dependency"><path d="M745.283,209.511 C745.283,237.411 745.283,267.028 745.283,294.895" style="stroke:#334155;stroke-width:1.667;" fill="none" id="L1ProposalFreezer-to-DecisionOutcomeHandlers" codeLine="28"/><polygon points="745.283,303.228,751.95,288.228,745.283,294.895,738.617,288.228,745.283,303.228" fill="#334155" style="stroke:#334155;stroke-width:1.667;stroke-linejoin:miter;stroke-miterlimit:10;"/></g><!--link DecisionOutcomeHandlers to PermissionDecisionPort--><g class="link" data-entity-1="ent0003" data-entity-2="ent0004" id="lnk17" data-source-line="29" data-link-type="dependency"><path d="M706.1,380.945 C679.933,405.745 650.283,433.828 650.283,433.828 C650.283,433.828 622.699,501.839 603.499,549.173" style="stroke:#334155;stroke-width:1.667;" fill="none" id="DecisionOutcomeHandlers-to-PermissionDecisionPort" codeLine="29"/><polygon points="600.367,556.895,612.183,545.501,603.499,549.173,599.827,540.489,600.367,556.895" fill="#334155" style="stroke:#334155;stroke-width:1.667;stroke-linejoin:miter;stroke-miterlimit:10;"/><text x="651.95" y="454.059" fill="#172033" font-size="20" textLength="158.496" font-family="'Hiragino Sans GB'">decide / inspect</text></g><!--link DecisionOutcomeHandlers to ResolvedActionVerifier--><g class="link" data-entity-1="ent0003" data-entity-2="ent0007" id="lnk18" data-source-line="30" data-link-type="dependency"><path d="M780.467,381.278 C825.033,428.728 895.629,503.903 939.929,551.086" style="stroke:#334155;stroke-width:1.667;" fill="none" id="DecisionOutcomeHandlers-to-ResolvedActionVerifier" codeLine="30"/><polygon points="945.633,557.161,940.226,541.663,939.929,551.086,930.506,550.789,945.633,557.161" fill="#334155" style="stroke:#334155;stroke-width:1.667;stroke-linejoin:miter;stroke-miterlimit:10;"/><text x="850.383" y="454.059" fill="#172033" font-size="20" textLength="196.446" font-family="'Hiragino Sans GB'">已提交 DispatchTool</text></g><!--link ResolvedActionVerifier to PermitClient--><g class="link" data-entity-1="ent0007" data-entity-2="ent0008" id="lnk19" data-source-line="31" data-link-type="dependency"><path d="M982.683,634.595 C985.85,683.928 990.866,762.229 994.032,811.529" style="stroke:#334155;stroke-width:1.667;" fill="none" id="ResolvedActionVerifier-to-PermitClient" codeLine="31"/><polygon points="994.567,819.845,1000.258,804.448,994.032,811.529,986.952,805.303,994.567,819.845" fill="#334155" style="stroke:#334155;stroke-width:1.667;stroke-linejoin:miter;stroke-miterlimit:10;"/></g><!--link PermitClient to PermitValidationPort--><g class="link" data-entity-1="ent0008" data-entity-2="ent0005" id="lnk20" data-source-line="32" data-link-type="dependency"><path d="M934.033,897.495 C868.5,936.211 775.283,991.295 775.283,991.295 C775.283,991.295 730.283,1004.628 730.283,1004.628 C730.283,1004.628 690.183,1038.928 653.549,1070.262" style="stroke:#334155;stroke-width:1.667;" fill="none" id="PermitClient-to-PermitValidationPort" codeLine="32"/><polygon points="647.217,1075.678,662.949,1070.994,653.549,1070.262,654.282,1060.862,647.217,1075.678" fill="#334155" style="stroke:#334155;stroke-width:1.667;stroke-linejoin:miter;stroke-miterlimit:10;"/><text x="731.95" y="1024.859" fill="#172033" font-size="20" textLength="253.369" font-family="'Hiragino Sans GB'">consume / authorizeStart</text></g><!--link ExecutionStarter to PermitClient--><g class="link" data-entity-1="ent0009" data-entity-2="ent0008" id="lnk21" data-source-line="33" data-link-type="dependency"><path d="M1662.683,648.395 C1573.617,681.811 1473.617,719.311 1473.617,719.311 C1473.617,719.311 1242.023,786.2 1102.573,826.466" style="stroke:#334155;stroke-width:1.667;" fill="none" id="ExecutionStarter-to-PermitClient" codeLine="33"/><polygon points="1094.567,828.778,1110.827,831.022,1102.573,826.466,1107.128,818.212,1094.567,828.778" fill="#334155" style="stroke:#334155;stroke-width:1.667;stroke-linejoin:miter;stroke-miterlimit:10;"/><text x="1537.467" y="714.543" fill="#172033" font-size="20" textLength="142.852" font-family="'Hiragino Sans GB'">取得当前 Grant</text></g><!--link ExecutionStarter to ToolCall--><g class="link" data-entity-1="ent0009" data-entity-2="ent0011" id="lnk22" data-source-line="34" data-link-type="dependency"><path d="M1760.283,648.395 C1735.167,681.811 1706.95,719.311 1706.95,719.311 C1706.95,719.311 1693.237,733.835 1669.387,759.101" style="stroke:#334155;stroke-width:1.667;" fill="none" id="ExecutionStarter-to-ToolCall" codeLine="34"/><polygon points="1663.667,765.161,1678.811,758.83,1669.387,759.101,1669.115,749.677,1663.667,765.161" fill="#334155" style="stroke:#334155;stroke-width:1.667;stroke-linejoin:miter;stroke-miterlimit:10;"/><text x="1726.167" y="714.543" fill="#172033" font-size="20" textLength="139.443" font-family="'Hiragino Sans GB'">STARTED CAS</text></g><!--link ExecutionStarter to ToolProviderPort--><g class="link" data-entity-1="ent0009" data-entity-2="ent0012" id="lnk23" data-source-line="35" data-link-type="dependency"><path d="M1874.883,648.378 C1950.2,698.728 2056.689,769.897 2124.055,814.93" style="stroke:#334155;stroke-width:1.667;" fill="none" id="ExecutionStarter-to-ToolProviderPort" codeLine="35"/><polygon points="2130.983,819.561,2122.218,805.683,2124.055,814.93,2114.808,816.768,2130.983,819.561" fill="#334155" style="stroke:#334155;stroke-width:1.667;stroke-linejoin:miter;stroke-miterlimit:10;"/><text x="1971.2" y="714.543" fill="#172033" font-size="20" textLength="60" font-family="'Hiragino Sans GB'">仅胜者</text></g><!--link ExecutionStarter to SandboxPort--><g class="link" data-entity-1="ent0009" data-entity-2="ent0013" id="lnk24" data-source-line="36" data-link-type="dependency"><path d="M1964.633,648.445 C2126.017,698.061 2346.95,765.978 2346.95,765.978 C2346.95,765.978 2383.263,790.161 2421.096,815.344" style="stroke:#334155;stroke-width:1.667;" fill="none" id="ExecutionStarter-to-SandboxPort" codeLine="36"/><polygon points="2428.033,819.961,2419.241,806.1,2421.096,815.344,2411.853,817.199,2428.033,819.961" fill="#334155" style="stroke:#334155;stroke-width:1.667;stroke-linejoin:miter;stroke-miterlimit:10;"/><text x="2186.6" y="714.543" fill="#172033" font-size="20" textLength="120.001" font-family="'Hiragino Sans GB'">固定执行路径</text></g><!--link ReconciliationReader to ToolCall--><g class="link" data-entity-1="ent0010" data-entity-2="ent0011" id="lnk25" data-source-line="37" data-link-type="dependency"><path d="M1360.683,634.595 C1359.733,661.928 1358.617,694.311 1358.617,694.311 C1358.617,694.311 1358.617,719.311 1358.617,719.311 C1358.617,719.311 1419.702,757.815 1479.835,795.749" style="stroke:#334155;stroke-width:1.667;" fill="none" id="ReconciliationReader-to-ToolCall" codeLine="37"/><polygon points="1486.883,800.195,1477.754,786.553,1479.835,795.749,1470.64,797.83,1486.883,800.195" fill="#334155" style="stroke:#334155;stroke-width:1.667;stroke-linejoin:miter;stroke-miterlimit:10;"/><text x="1360.283" y="714.543" fill="#172033" font-size="20" textLength="100.001" font-family="'Hiragino Sans GB'">原命令结果</text></g><!--link MemoryExecutionPEP to PermitValidationPort--><g class="link" data-entity-1="ent0014" data-entity-2="ent0005" id="lnk26" data-source-line="38" data-link-type="dependency"><path d="M589.417,897.578 C592.567,945.361 597.453,1019.363 600.603,1067.213" style="stroke:#334155;stroke-width:1.667;" fill="none" id="MemoryExecutionPEP-to-PermitValidationPort" codeLine="38"/><polygon points="601.15,1075.528,606.817,1060.123,600.603,1067.213,593.512,1060.998,601.15,1075.528" fill="#334155" style="stroke:#334155;stroke-width:1.667;stroke-linejoin:miter;stroke-miterlimit:10;"/></g><!--link ChildAdmissionPEP to PermitValidationPort--><g class="link" data-entity-1="ent0015" data-entity-2="ent0005" id="lnk27" data-source-line="39" data-link-type="dependency"><path d="M258.983,897.495 C316.633,936.211 398.617,991.295 398.617,991.295 C398.617,991.295 473.051,1035.458 533.284,1071.208" style="stroke:#334155;stroke-width:1.667;" fill="none" id="ChildAdmissionPEP-to-PermitValidationPort" codeLine="39"/><polygon points="540.45,1075.461,530.954,1062.073,533.284,1071.208,524.148,1073.538,540.45,1075.461" fill="#334155" style="stroke:#334155;stroke-width:1.667;stroke-linejoin:miter;stroke-miterlimit:10;"/></g><?plantuml-src VLHRJnD157xVNp7of8c0H9zuC6dQeWyOcfRuFkmUw8JPdStk5053GkKIRWKC10pNe1Xum6eaIcsX_1Xtjll6Nt2cfHTwCUd3d3FddE_RxtoTHyJIQSe0rDFJAtyy2IRqs2cJQfnm2YWMZTrTxudJJ6dxN6GsWcpsxdfDRCxxosV1oLhfmn_lzj0_MFRogo9xfBdZnBAnWqr4YGLyoWPaCpgb0it6-ZWU0zGrs8Uyt9vOEQdC4DbRBrVeGkyrf5FikcYmB-OmcxcO3ZW0q-1KBoAW4vSmQoZ5TMR2QsmP51nNcz68nS4PnRha2uv9N5LLhOunXpSNyBUO4WFpwdMTstCqp1WDOqhZAOiJ4ng8nS5bT0ACaAuQtu93HacTNMLmc1AmU3KNdGGzfOeJ73kIWPg5aAk28Kk7nsCEjlXJ19Csw1mCEL8nVgAXcJgcpYoTK58c6mTir16hJ2jJxIHsGHqcAbFKqG4TYCtZC5h3VQKWoucP1yAfOLBt2I81cYHBIA57s6GvMq5-0oPpfcfV9qroVn5E4cg4ZFiLg7pBDb5tzykEg-oGB_UqNotgHuOCfODx4R5S9UH_fxHVefmYhdxw6vjU_XH5Y6jZhYUL95g7-XgXwiORWuRRXqQJC7ATRifKR76A9vb3fg5i3gt5AyqGYkF6ZYZkYfijiPn1vKssRwivenybXaFnuMW4XKE9phMDYvSzNc4Xc3i8PXVQTpJuGN7QpuliNkM_75nz5yLvhPrfctc9zMFnySOhd9OAM_xHWTPggOugQYqkwrngCGveX77EJCH6s_WJ3KIHl_fLlc5YuJ98R_-TJKkL_TzBvSDkQNFHowtxwS_o2THGS7ME1YXxXoB3GrAbZ2Wke4Iy-zaB3Im3AQncm8UlWfVBUCN3uDSEYaNakxelOv7UArrSUFar_-8a-98MYvVbijBrblZsoTyzyvSsnSgnTtFWvVB-pe-AplxXN0tn7m00?></g></svg>