<svg xmlns="http://www.w3.org/2000/svg" xmlns:xlink="http://www.w3.org/1999/xlink" version="1.1" data-diagram-type="STATE" style="width:2816px;height:818px;background:#FFFFFF;" width="2816.667px" height="818.333px" viewBox="0 0 2816 818" zoomAndPan="magnify" preserveAspectRatio="none" contentStyleType="text/css"><?plantuml 1.2026.7?><defs/><g font-family="sans-serif" lengthAdjust="spacing"><g class="title" data-source-line="2"><text x="1193.668" y="38.325" fill="#172033" font-size="23.333" textLength="417.663" font-weight="700" font-family="'Hiragino Sans GB'">AgentRun 生命周期状态（评审提案）</text></g><g class="start_entity" data-qualified-name=".start." id="ent0001" data-source-line="8"><ellipse cx="26.667" cy="753.828" rx="16.667" ry="16.667" fill="#222" style="stroke:#222;stroke-width:1.667;"/></g><g class="entity" data-qualified-name="ACCEPTED" id="ent0002" data-source-line="8"><rect x="315" y="712.161" width="157.656" height="83.333" fill="#DCEBFA" style="stroke:#2563EB;stroke-width:0.833;" rx="10" ry="10"/><line x1="315" y1="755.99" x2="472.656" y2="755.99" style="stroke:#2563EB;stroke-width:0.833;"/><text x="331.667" y="742.153" fill="#172033" font-size="23.333" textLength="124.323" font-family="'Hiragino Sans GB'">ACCEPTED</text></g><g class="entity" data-qualified-name="QUEUED" id="ent0004" data-source-line="9"><rect x="794.25" y="712.161" width="133.309" height="83.333" fill="#DCEBFA" style="stroke:#2563EB;stroke-width:0.833;" rx="10" ry="10"/><line x1="794.25" y1="755.99" x2="927.559" y2="755.99" style="stroke:#2563EB;stroke-width:0.833;"/><text x="810.917" y="742.153" fill="#172033" font-size="23.333" textLength="99.976" font-family="'Hiragino Sans GB'">QUEUED</text></g><g class="entity" data-qualified-name="ACTIVE" id="ent0006" data-source-line="10"><rect x="1242.1" y="423.828" width="117.427" height="83.333" fill="#DCEBFA" style="stroke:#2563EB;stroke-width:0.833;" rx="10" ry="10"/><line x1="1242.1" y1="467.656" x2="1359.527" y2="467.656" style="stroke:#2563EB;stroke-width:0.833;"/><text x="1258.767" y="453.82" fill="#172033" font-size="23.333" textLength="84.093" font-family="'Hiragino Sans GB'">ACTIVE</text></g><g class="entity" data-qualified-name="COMPLETED" id="ent0008" data-source-line="11"><rect x="2126.433" y="73.828" width="176.899" height="83.333" fill="#DCEBFA" style="stroke:#2563EB;stroke-width:0.833;" rx="10" ry="10"/><line x1="2126.433" y1="117.656" x2="2303.333" y2="117.656" style="stroke:#2563EB;stroke-width:0.833;"/><text x="2143.1" y="103.82" fill="#172033" font-size="23.333" textLength="143.566" font-family="'Hiragino Sans GB'">COMPLETED</text></g><g class="entity" data-qualified-name="FAILED" id="ent0010" data-source-line="12"><rect x="2456.5" y="425.495" width="115.308" height="83.333" fill="#DCEBFA" style="stroke:#2563EB;stroke-width:0.833;" rx="10" ry="10"/><line x1="2456.5" y1="469.323" x2="2571.808" y2="469.323" style="stroke:#2563EB;stroke-width:0.833;"/><text x="2473.167" y="455.487" fill="#172033" font-size="23.333" textLength="81.974" font-family="'Hiragino Sans GB'">FAILED</text></g><g class="entity" data-qualified-name="SUSPENDED" id="ent0012" data-source-line="13"><rect x="2425.667" y="682.161" width="176.979" height="83.333" fill="#DCEBFA" style="stroke:#2563EB;stroke-width:0.833;" rx="10" ry="10"/><line x1="2425.667" y1="725.99" x2="2602.646" y2="725.99" style="stroke:#2563EB;stroke-width:0.833;"/><text x="2442.333" y="712.153" fill="#172033" font-size="23.333" textLength="143.646" font-family="'Hiragino Sans GB'">SUSPENDED</text></g><g class="entity" data-qualified-name="RECOVERING" id="ent0015" data-source-line="15"><rect x="1767.817" y="565.495" width="188.281" height="83.333" fill="#DCEBFA" style="stroke:#2563EB;stroke-width:0.833;" rx="10" ry="10"/><line x1="1767.817" y1="609.323" x2="1956.098" y2="609.323" style="stroke:#2563EB;stroke-width:0.833;"/><text x="1784.483" y="595.487" fill="#172033" font-size="23.333" textLength="154.948" font-family="'Hiragino Sans GB'">RECOVERING</text></g><g class="entity" data-qualified-name="CANCELLED" id="ent0020" data-source-line="19"><rect x="1775.55" y="307.161" width="172.786" height="83.333" fill="#DCEBFA" style="stroke:#2563EB;stroke-width:0.833;" rx="10" ry="10"/><line x1="1775.55" y1="350.99" x2="1948.336" y2="350.99" style="stroke:#2563EB;stroke-width:0.833;"/><text x="1792.217" y="337.153" fill="#172033" font-size="23.333" textLength="139.453" font-family="'Hiragino Sans GB'">CANCELLED</text></g><g class="end_entity" data-qualified-name=".end." id="ent0022" data-source-line="21"><ellipse cx="2775" cy="348.828" rx="18.333" ry="18.333" fill="none" style="stroke:#222;stroke-width:1.667;"/><ellipse cx="2775" cy="348.828" rx="10" ry="10" fill="#222" style="stroke:#222;stroke-width:1.667;"/></g><g class="entity" data-qualified-name="GMN26" id="ent0027" data-source-line="26"><path d="M729.317,385.678 L729.317,545.314 A10,10 0 0 0 739.317,555.314 L982.466,555.314 A10,10 0 0 0 992.466,545.314 L992.466,472.161 L1241.433,465.495 L992.466,458.828 L992.466,392.345 L975.799,375.678 L739.317,375.678 A10,10 0 0 0 729.317,385.678" style="stroke:#D97706;stroke-width:0.833;" fill="#FFFBEB"/><path d="M975.799,375.678 L975.799,387.345 A5,5 0 0 0 980.799,392.345 L992.466,392.345 L975.799,375.678" style="stroke:#D97706;stroke-width:0.833;" fill="#FFFBEB"/><text x="739.317" y="405.67" fill="#172033" font-size="23.333" textLength="208.177" font-family="'Hiragino Sans GB'">ACTIVE 内部位置：</text><text x="739.317" y="432.831" fill="#172033" font-size="23.333" textLength="73.486" font-family="'Hiragino Sans GB'">Ready</text><text x="739.317" y="459.993" fill="#172033" font-size="23.333" textLength="171.115" font-family="'Hiragino Sans GB'">AwaitingModel</text><text x="739.317" y="487.154" fill="#172033" font-size="23.333" textLength="228.149" font-family="'Hiragino Sans GB'">AwaitingPermission</text><text x="739.317" y="514.316" fill="#172033" font-size="23.333" textLength="150.345" font-family="'Hiragino Sans GB'">AwaitingTool</text><text x="739.317" y="541.477" fill="#172033" font-size="23.333" textLength="159.915" font-family="'Hiragino Sans GB'">AwaitingChild</text></g><g class="entity" data-qualified-name="GMN29" id="ent0030" data-source-line="35"><path d="M1627.467,196.661 L1627.467,247.651 A10,10 0 0 0 1637.467,257.651 L2086.422,257.651 A10,10 0 0 0 2096.422,247.651 L2096.422,203.328 L2079.755,186.661 L1637.467,186.661 A10,10 0 0 0 1627.467,196.661" style="stroke:#D97706;stroke-width:0.833;" fill="#FFFBEB"/><path d="M2079.755,186.661 L2079.755,198.328 A5,5 0 0 0 2084.755,203.328 L2096.422,203.328 L2079.755,186.661" style="stroke:#D97706;stroke-width:1.667;" fill="#FFFBEB"/><text x="1637.467" y="216.653" fill="#172033" font-size="23.333" textLength="433.955" font-family="'Hiragino Sans GB'">生命周期与内部位置来自同一 Run 快照。</text><text x="1637.467" y="243.815" fill="#172033" font-size="23.333" textLength="283.11" font-family="'Hiragino Sans GB'">Session 不保存状态副本。</text></g><g class="entity" data-qualified-name="GMN32" id="ent0033" data-source-line="40"><path d="M2333.333,211.661 L2333.333,259.318 L1949.117,334.111 L2333.333,272.651 L2333.333,262.651 A10,10 0 0 0 2343.333,272.651 L2684.999,272.651 A10,10 0 0 0 2694.999,262.651 L2694.999,218.328 L2678.332,201.661 L2343.333,201.661 A10,10 0 0 0 2333.333,211.661" style="stroke:#D97706;stroke-width:0.833;" fill="#FFFBEB"/><path d="M2678.332,201.661 L2678.332,213.328 A5,5 0 0 0 2683.332,218.328 L2694.999,218.328 L2678.332,201.661" style="stroke:#D97706;stroke-width:0.833;" fill="#FFFBEB"/><text x="2343.333" y="231.653" fill="#172033" font-size="23.333" textLength="326.665" font-family="'Hiragino Sans GB'">任意非终态均可建立取消栅栏。</text><text x="2343.333" y="258.815" fill="#172033" font-size="23.333" textLength="326.665" font-family="'Hiragino Sans GB'">栅栏之后禁止创建新外部动作。</text></g><!--link *start* to ACCEPTED--><g class="link" data-entity-1="ent0001" data-entity-2="ent0002" id="lnk3" data-source-line="8" data-link-type="dependency"><path d="M43.967,753.828 C89.933,753.828 218.633,753.828 306.45,753.828" style="stroke:#334155;stroke-width:1.667;" fill="none" id="*start*-to-ACCEPTED"/><polygon points="314.783,753.828,299.783,747.161,306.45,753.828,299.783,760.495,314.783,753.828" fill="#334155" style="stroke:#334155;stroke-width:1.667;stroke-linejoin:miter;stroke-miterlimit:10;"/><text x="75" y="749.059" fill="#172033" font-size="20" textLength="208.722" font-family="'Hiragino Sans GB'">Run + 幂等回执已提交</text></g><!--link ACCEPTED to QUEUED--><g class="link" data-entity-1="ent0002" data-entity-2="ent0004" id="lnk5" data-source-line="9" data-link-type="dependency"><path d="M473.117,753.828 C563.1,753.828 701.483,753.828 785.767,753.828" style="stroke:#334155;stroke-width:1.667;" fill="none" id="ACCEPTED-to-QUEUED"/><polygon points="794.1,753.828,779.1,747.161,785.767,753.828,779.1,760.495,794.1,753.828" fill="#334155" style="stroke:#334155;stroke-width:1.667;stroke-linejoin:miter;stroke-miterlimit:10;"/><text x="504.317" y="749.059" fill="#172033" font-size="20" textLength="194.121" font-family="'Hiragino Sans GB'">Scheduler.enqueue</text></g><!--link QUEUED to ACTIVE--><g class="link" data-entity-1="ent0004" data-entity-2="ent0006" id="lnk7" data-source-line="10" data-link-type="dependency"><path d="M926.517,711.595 C1011.3,655.595 1152.747,562.188 1234.347,508.288" style="stroke:#334155;stroke-width:1.667;" fill="none" id="QUEUED-to-ACTIVE"/><polygon points="1241.3,503.695,1225.11,506.399,1234.347,508.288,1232.458,517.525,1241.3,503.695" fill="#334155" style="stroke:#334155;stroke-width:1.667;stroke-linejoin:miter;stroke-miterlimit:10;"/><text x="1030.213" y="530.659" fill="#172033" font-size="20" textLength="128.047" font-family="'Hiragino Sans GB'">创建 Attempt</text><text x="1024.133" y="553.94" fill="#172033" font-size="20" textLength="140.206" font-family="'Hiragino Sans GB'">获得有效 claim</text></g><!--link ACTIVE to COMPLETED--><g class="link" data-entity-1="ent0006" data-entity-2="ent0008" id="lnk9" data-source-line="11" data-link-type="dependency"><path d="M1334.75,423.128 C1374.217,371.345 1435.8,290.495 1435.8,290.495 C1435.8,290.495 1627.467,162.161 1627.467,162.161 C1627.467,162.161 1954.676,136.09 2117.843,123.09" style="stroke:#334155;stroke-width:1.667;" fill="none" id="ACTIVE-to-COMPLETED"/><polygon points="2126.15,122.428,2110.668,116.974,2117.843,123.09,2111.727,130.265,2126.15,122.428" fill="#334155" style="stroke:#334155;stroke-width:1.667;stroke-linejoin:miter;stroke-miterlimit:10;"/><text x="1476.633" y="178.493" fill="#172033" font-size="20" textLength="80.001" font-family="'Hiragino Sans GB'">最终输出</text></g><!--link ACTIVE to FAILED--><g class="link" data-entity-1="ent0006" data-entity-2="ent0010" id="lnk11" data-source-line="12" data-link-type="dependency"><path d="M1360.017,465.578 C1564.333,465.861 2245.033,466.8 2447.667,467.067" style="stroke:#334155;stroke-width:1.667;" fill="none" id="ACTIVE-to-FAILED"/><polygon points="2456,467.078,2441.009,460.392,2447.667,467.067,2440.991,473.725,2456,467.078" fill="#334155" style="stroke:#334155;stroke-width:1.667;stroke-linejoin:miter;stroke-miterlimit:10;"/><text x="1801.95" y="461.176" fill="#172033" font-size="20" textLength="120.001" font-family="'Hiragino Sans GB'">不可恢复失败</text></g><!--link ACTIVE to SUSPENDED--><g class="link" data-entity-1="ent0006" data-entity-2="ent0012" id="lnk13" data-source-line="13" data-link-type="dependency"><path d="M1356.7,507.528 C1393.617,536.128 1435.8,568.828 1435.8,568.828 C1435.8,568.828 1627.467,698.828 1627.467,698.828 C1627.467,698.828 2193.603,714.826 2416.887,721.126" style="stroke:#334155;stroke-width:1.667;" fill="none" id="ACTIVE-to-SUSPENDED"/><polygon points="2425.217,721.361,2410.411,714.274,2416.887,721.126,2410.035,727.602,2425.217,721.361" fill="#334155" style="stroke:#334155;stroke-width:1.667;stroke-linejoin:miter;stroke-miterlimit:10;"/><text x="1772.783" y="694.059" fill="#172033" font-size="20" textLength="179.454" font-family="'Hiragino Sans GB'">等待审批 / 结果未知</text></g><!--link SUSPENDED to QUEUED--><g class="link" data-entity-1="ent0012" data-entity-2="ent0004" id="lnk14" data-source-line="14" data-link-type="dependency"><path d="M2425,725.911 C2367.683,727.295 2303.333,728.828 2303.333,728.828 C2303.333,728.828 1218.399,747.65 936.549,752.55" style="stroke:#334155;stroke-width:1.667;" fill="none" id="SUSPENDED-to-QUEUED"/><polygon points="928.217,752.695,943.33,759.1,936.549,752.55,943.099,745.768,928.217,752.695" fill="#334155" style="stroke:#334155;stroke-width:1.667;stroke-linejoin:miter;stroke-miterlimit:10;"/><text x="1456.633" y="736.559" fill="#172033" font-size="20" textLength="120.001" font-family="'Hiragino Sans GB'">可信唤醒事实</text></g><!--link ACTIVE to RECOVERING--><g class="link" data-entity-1="ent0006" data-entity-2="ent0015" id="lnk16" data-source-line="15" data-link-type="dependency"><path d="M1359.783,492.728 C1395.933,509.895 1435.8,528.828 1435.8,528.828 C1435.8,528.828 1633.988,565.399 1758.938,588.465" style="stroke:#334155;stroke-width:1.667;" fill="none" id="ACTIVE-to-RECOVERING"/><polygon points="1767.133,589.978,1753.593,580.699,1758.938,588.465,1751.172,593.811,1767.133,589.978" fill="#334155" style="stroke:#334155;stroke-width:1.667;stroke-linejoin:miter;stroke-miterlimit:10;"/><text x="1437.467" y="524.059" fill="#172033" font-size="20" textLength="159.659" font-family="'Hiragino Sans GB'">claim 丢失 / 崩溃</text></g><!--link RECOVERING to QUEUED--><g class="link" data-entity-1="ent0015" data-entity-2="ent0004" id="lnk17" data-source-line="16" data-link-type="dependency"><path d="M1767.117,620.861 C1567.017,650.278 1108.595,717.666 936.278,742.999" style="stroke:#334155;stroke-width:1.667;" fill="none" id="RECOVERING-to-QUEUED"/><polygon points="928.033,744.211,943.843,748.625,936.278,742.999,941.904,735.434,928.033,744.211" fill="#334155" style="stroke:#334155;stroke-width:1.667;stroke-linejoin:miter;stroke-miterlimit:10;"/><text x="1197.467" y="670.843" fill="#172033" font-size="20" textLength="208.048" font-family="'Hiragino Sans GB'">安全恢复，新 Attempt</text></g><!--link RECOVERING to SUSPENDED--><g class="link" data-entity-1="ent0015" data-entity-2="ent0012" id="lnk18" data-source-line="17" data-link-type="dependency"><path d="M1956.583,623.878 C2081.683,646.378 2294.398,684.621 2416.698,706.604" style="stroke:#334155;stroke-width:1.667;" fill="none" id="RECOVERING-to-SUSPENDED"/><polygon points="2424.9,708.078,2411.316,698.863,2416.698,706.604,2408.957,711.986,2424.9,708.078" fill="#334155" style="stroke:#334155;stroke-width:1.667;stroke-linejoin:miter;stroke-miterlimit:10;"/><text x="2154.883" y="650.276" fill="#172033" font-size="20" textLength="120.001" font-family="'Hiragino Sans GB'">外部效果未知</text></g><!--link RECOVERING to FAILED--><g class="link" data-entity-1="ent0015" data-entity-2="ent0010" id="lnk19" data-source-line="18" data-link-type="dependency"><path d="M1956.867,590.545 C2085.933,567.561 2303.333,528.828 2303.333,528.828 C2303.333,528.828 2385.957,504.469 2447.89,486.202" style="stroke:#334155;stroke-width:1.667;" fill="none" id="RECOVERING-to-FAILED"/><polygon points="2455.883,483.845,2439.61,481.694,2447.89,486.202,2443.382,494.483,2455.883,483.845" fill="#334155" style="stroke:#334155;stroke-width:1.667;stroke-linejoin:miter;stroke-miterlimit:10;"/><text x="2144.883" y="524.059" fill="#172033" font-size="20" textLength="140.001" font-family="'Hiragino Sans GB'">无安全恢复路径</text></g><!--link ACTIVE to CANCELLED--><g class="link" data-entity-1="ent0006" data-entity-2="ent0020" id="lnk21" data-source-line="19" data-link-type="dependency"><path d="M1359.783,449.011 C1395.933,438.628 1435.8,427.161 1435.8,427.161 C1435.8,427.161 1642.738,388.974 1766.705,366.091" style="stroke:#334155;stroke-width:1.667;" fill="none" id="ACTIVE-to-CANCELLED"/><polygon points="1774.9,364.578,1758.939,360.745,1766.705,366.091,1761.359,373.857,1774.9,364.578" fill="#334155" style="stroke:#334155;stroke-width:1.667;stroke-linejoin:miter;stroke-miterlimit:10;"/><text x="1442.467" y="394.826" fill="#172033" font-size="20" textLength="149.474" font-family="'Hiragino Sans GB'">取消栅栏 + 收敛</text></g><!--link COMPLETED to *end*--><g class="link" data-entity-1="ent0008" data-entity-2="ent0022" id="lnk23" data-source-line="21" data-link-type="dependency"><path d="M2303.75,126.728 C2441.75,144.528 2695,177.161 2695,177.161 C2695,177.161 2742.758,281.813 2762.358,324.78" style="stroke:#334155;stroke-width:1.667;" fill="none" id="COMPLETED-to-*end*"/><polygon points="2765.817,332.361,2765.657,315.947,2762.358,324.78,2753.526,321.481,2765.817,332.361" fill="#334155" style="stroke:#334155;stroke-width:1.667;stroke-linejoin:miter;stroke-miterlimit:10;"/></g><!--link FAILED to *end*--><g class="link" data-entity-1="ent0010" data-entity-2="ent0022" id="lnk24" data-source-line="22" data-link-type="dependency"><path d="M2572.333,445.728 C2634.783,422.028 2726.667,387.161 2726.667,387.161 C2726.667,387.161 2739.375,376.715 2753.142,365.415" style="stroke:#334155;stroke-width:1.667;" fill="none" id="FAILED-to-*end*"/><polygon points="2759.583,360.128,2743.759,364.492,2753.142,365.415,2752.219,374.798,2759.583,360.128" fill="#334155" style="stroke:#334155;stroke-width:1.667;stroke-linejoin:miter;stroke-miterlimit:10;"/></g><!--link CANCELLED to *end*--><g class="link" data-entity-1="ent0020" data-entity-2="ent0022" id="lnk25" data-source-line="23" data-link-type="dependency"><path d="M1948.383,348.828 C2151.717,348.828 2649.35,348.828 2748.117,348.828" style="stroke:#334155;stroke-width:1.667;" fill="none" id="CANCELLED-to-*end*"/><polygon points="2756.45,348.828,2741.45,342.161,2748.117,348.828,2741.45,355.495,2756.45,348.828" fill="#334155" style="stroke:#334155;stroke-width:1.667;stroke-linejoin:miter;stroke-miterlimit:10;"/></g><!--link ACTIVE to GMN29--><g class="link" data-entity-1="ent0006" data-entity-2="ent0030" id="lnk31" data-source-line="35" data-link-type="association"><path d="M1356.7,423.461 C1393.617,394.861 1435.8,362.161 1435.8,362.161 C1435.8,362.161 1627.467,282.161 1627.467,282.161 C1627.467,282.161 1670.45,271.078 1719.483,258.445" style="stroke:#334155;stroke-width:1.667;stroke-dasharray:11.667,11.667;" fill="none" id="ACTIVE-GMN29"/></g><?plantuml-src TLDRJnf157wVNp5zRICsQVhIXoO4juq9AWNrnVPXmuwmSTcbCAJn3Iyewmsig4rTy1AiLYlKndW1n1_JdLbyuYzqTXTaD6co3pjdllETxvpvpZDP3Iif2K6FfvzzaYn64c8isO-ZA8OyyLHC0LZ62eBU259nCAL2gx1Brc_9-Z4rTgsbIvgUQJUohUeygUpJN9xkPziD7IXe4aEimOGSYM8eoGaKnhAcWkIKhCP5LW4giehmT1p1kAPCsmVkBY6gKqaKXwzUSq5Lav0JV0d0nFDFiA_lBVJwV49WL1Y0Rw0jxGKaDxFMcKvsIbG_8bT_c22pLWOFC3ldmvWmvcI4mb4afHIKy23rSmgb4EXSkSoZW-C2Gv7i3gdNe1TZ58lZZsfhxOeqjwcXqyqi32kY70CTh9tc6naA-0LN4JNILZtRQcwGnHgFUUSTz3i0ytgLvAfqve2KLqdvl7LnoCD2Ow60C3pW8EsUcXbxmleDx8TMVOEM36gSMBk7e8Txr1rZDk_sIQ5yl_3Lh2sJIead3mg-aN4XE3Zyda6TBfWQfkESiPEBdxGs1pZ8O-AAJZB7hkfsOuLk_UuEvsaAtm4fRztF7REPzOG_GJ-CXMxlyJLQLrNId7yqPE-mJ_3xEsrkqSiitSlGlHnxVrguf9ix0FJUmKvWTW4T-kwnnz6D05N323h6rIOxxmzWrmXa8SFqcxUhrcsbtVZEBe98bAPjm1THnh8Q6MB-LBXp02LYSZ9fkxuN7DKq7kEBoee4a2f1ktX7Whipl0P-vSphDLuBBHws5az8ViMyJZixGEvEhSpHt_GiomiXfxvjDFEkICw-kVjAz2erVjcG_rL-c0uZCUjrEf-xBvQOcUtauYAp5bi9wtIP7xvRqVqtRvP9VitwCKFF3jpzOIvn7K2Mc723h_qF?></g></svg>