<svg xmlns="http://www.w3.org/2000/svg" xmlns:xlink="http://www.w3.org/1999/xlink" version="1.1" data-diagram-type="SEQUENCE" style="width:3801px;height:1335px;background:#FFFFFF;" width="3801.667px" height="1335px" viewBox="0 0 3801 1335" zoomAndPan="magnify" preserveAspectRatio="none" contentStyleType="text/css"><?plantuml 1.2026.7?><defs/><g font-family="sans-serif" lengthAdjust="spacing"><g class="title" data-source-line="2"><text x="1662.129" y="46.659" fill="#172033" font-size="23.333" textLength="475.29" font-weight="700" font-family="'Hiragino Sans GB'">启动 AgentRun：接受、调度与执行（V3）</text></g><g><title>....</title><rect x="62.5" y="205.99" width="13.333" height="983.958" fill="#000" fill-opacity="0"/><line x1="68.333" y1="205.99" x2="68.333" y2="1189.948" style="stroke:#64748B;stroke-width:0.833;stroke-dasharray:8.333,8.333;"/></g><g><title>KernelHost</title><rect x="461.015" y="205.99" width="13.333" height="983.958" fill="#000" fill-opacity="0"/><line x1="466.849" y1="205.99" x2="466.849" y2="1189.948" style="stroke:#64748B;stroke-width:0.833;stroke-dasharray:8.333,8.333;"/></g><g><title>AgentSystemGateway</title><rect x="1011.748" y="205.99" width="13.333" height="983.958" fill="#000" fill-opacity="0"/><line x1="1017.581" y1="205.99" x2="1017.581" y2="1189.948" style="stroke:#64748B;stroke-width:0.833;stroke-dasharray:8.333,8.333;"/></g><g><title>AgentRegistry</title><rect x="1501.572" y="205.99" width="13.333" height="983.958" fill="#000" fill-opacity="0"/><line x1="1507.405" y1="205.99" x2="1507.405" y2="1189.948" style="stroke:#64748B;stroke-width:0.833;stroke-dasharray:8.333,8.333;"/></g><g><title>RunRegistry</title><rect x="1695.569" y="205.99" width="13.333" height="983.958" fill="#000" fill-opacity="0"/><line x1="1701.402" y1="205.99" x2="1701.402" y2="1189.948" style="stroke:#64748B;stroke-width:0.833;stroke-dasharray:8.333,8.333;"/></g><g><title>RunScheduler</title><rect x="1890.979" y="205.99" width="13.333" height="983.958" fill="#000" fill-opacity="0"/><line x1="1896.812" y1="205.99" x2="1896.812" y2="1189.948" style="stroke:#64748B;stroke-width:0.833;stroke-dasharray:8.333,8.333;"/></g><g><title>AgentRuntimePool</title><rect x="2371.662" y="205.99" width="13.333" height="983.958" fill="#000" fill-opacity="0"/><line x1="2377.496" y1="205.99" x2="2377.496" y2="1189.948" style="stroke:#64748B;stroke-width:0.833;stroke-dasharray:8.333,8.333;"/></g><g><title>AgentRuntime</title><rect x="2653.352" y="205.99" width="13.333" height="983.958" fill="#000" fill-opacity="0"/><line x1="2659.185" y1="205.99" x2="2659.185" y2="1189.948" style="stroke:#64748B;stroke-width:0.833;stroke-dasharray:8.333,8.333;"/></g><g><title>AgentAdapter</title><rect x="3160.129" y="205.99" width="13.333" height="983.958" fill="#000" fill-opacity="0"/><line x1="3165.963" y1="205.99" x2="3165.963" y2="1189.948" style="stroke:#64748B;stroke-width:0.833;stroke-dasharray:8.333,8.333;"/></g><g><title>Event Journal</title><rect x="3358.837" y="205.99" width="13.333" height="983.958" fill="#000" fill-opacity="0"/><line x1="3364.67" y1="205.99" x2="3364.67" y2="1189.948" style="stroke:#64748B;stroke-width:0.833;stroke-dasharray:8.333,8.333;"/></g><g><title>AgentEventPublisherPort</title><rect x="3621.785" y="205.99" width="13.333" height="983.958" fill="#000" fill-opacity="0"/><line x1="3627.619" y1="205.99" x2="3627.619" y2="1189.948" style="stroke:#64748B;stroke-width:0.833;stroke-dasharray:8.333,8.333;"/></g><text x="16.667" y="200.487" fill="#172033" font-size="23.333" textLength="93.333" font-family="'Hiragino Sans GB'">业务编排</text><ellipse cx="68.333" cy="92.995" rx="13.333" ry="13.333" fill="#E2E2F0" style="stroke:#181818;stroke-width:0.833;"/><path d="M68.333,106.328 L68.333,151.328 M46.666,119.661 L90,119.661 M68.333,151.328 L46.666,176.328 M68.333,151.328 L90,176.328" style="stroke:#181818;stroke-width:0.833;" fill="none"/><rect x="391.181" y="153.828" width="151.336" height="50.495" fill="#E2E2F0" style="stroke:#181818;stroke-width:0.833;" rx="10" ry="10"/><text x="402.847" y="187.153" fill="#172033" font-size="23.333" textLength="128.003" font-family="'Hiragino Sans GB'">KernelHost</text><rect x="876.339" y="153.828" width="282.484" height="50.495" fill="#E2E2F0" style="stroke:#181818;stroke-width:0.833;" rx="10" ry="10"/><text x="888.006" y="187.153" fill="#172033" font-size="23.333" textLength="259.15" font-family="'Hiragino Sans GB'">AgentSystemGateway</text><rect x="1412.921" y="153.828" width="188.968" height="50.495" fill="#E2E2F0" style="stroke:#181818;stroke-width:0.833;" rx="10" ry="10"/><text x="1424.588" y="187.153" fill="#172033" font-size="23.333" textLength="165.635" font-family="'Hiragino Sans GB'">AgentRegistry</text><rect x="1618.556" y="153.828" width="165.692" height="50.495" fill="#E2E2F0" style="stroke:#181818;stroke-width:0.833;" rx="10" ry="10"/><text x="1630.223" y="187.153" fill="#172033" font-size="23.333" textLength="142.358" font-family="'Hiragino Sans GB'">RunRegistry</text><rect x="1803.843" y="153.828" width="185.938" height="50.495" fill="#E2E2F0" style="stroke:#181818;stroke-width:0.833;" rx="10" ry="10"/><text x="1815.51" y="187.153" fill="#172033" font-size="23.333" textLength="162.604" font-family="'Hiragino Sans GB'">RunScheduler</text><rect x="2257.491" y="153.828" width="240.01" height="50.495" fill="#E2E2F0" style="stroke:#181818;stroke-width:0.833;" rx="10" ry="10"/><text x="2269.158" y="187.153" fill="#172033" font-size="23.333" textLength="216.676" font-family="'Hiragino Sans GB'">AgentRuntimePool</text><rect x="2563.733" y="153.828" width="190.905" height="50.495" fill="#E2E2F0" style="stroke:#181818;stroke-width:0.833;" rx="10" ry="10"/><text x="2575.399" y="187.153" fill="#172033" font-size="23.333" textLength="167.572" font-family="'Hiragino Sans GB'">AgentRuntime</text><rect x="3073.273" y="153.828" width="185.379" height="50.495" fill="#E2E2F0" style="stroke:#181818;stroke-width:0.833;" rx="10" ry="10"/><text x="3084.94" y="187.153" fill="#172033" font-size="23.333" textLength="162.046" font-family="'Hiragino Sans GB'">AgentAdapter</text><rect x="3275.319" y="153.828" width="178.703" height="50.495" fill="#E2E2F0" style="stroke:#181818;stroke-width:0.833;" rx="10" ry="10"/><text x="3286.985" y="187.153" fill="#172033" font-size="23.333" textLength="155.369" font-family="'Hiragino Sans GB'">Event Journal</text><rect x="3470.688" y="153.828" width="313.861" height="50.495" fill="#E2E2F0" style="stroke:#181818;stroke-width:0.833;" rx="10" ry="10"/><text x="3482.355" y="187.153" fill="#172033" font-size="23.333" textLength="290.527" font-family="'Hiragino Sans GB'">AgentEventPublisherPort</text><text x="16.667" y="1211.606" fill="#172033" font-size="23.333" textLength="93.333" font-family="'Hiragino Sans GB'">业务编排</text><ellipse cx="68.333" cy="1231.276" rx="13.333" ry="13.333" fill="#E2E2F0" style="stroke:#181818;stroke-width:0.833;"/><path d="M68.333,1244.609 L68.333,1289.609 M46.666,1257.943 L90,1257.943 M68.333,1289.609 L46.666,1314.609 M68.333,1289.609 L90,1314.609" style="stroke:#181818;stroke-width:0.833;" fill="none"/><rect x="391.181" y="1189.948" width="151.336" height="50.495" fill="#E2E2F0" style="stroke:#181818;stroke-width:0.833;" rx="10" ry="10"/><text x="402.847" y="1223.273" fill="#172033" font-size="23.333" textLength="128.003" font-family="'Hiragino Sans GB'">KernelHost</text><rect x="876.339" y="1189.948" width="282.484" height="50.495" fill="#E2E2F0" style="stroke:#181818;stroke-width:0.833;" rx="10" ry="10"/><text x="888.006" y="1223.273" fill="#172033" font-size="23.333" textLength="259.15" font-family="'Hiragino Sans GB'">AgentSystemGateway</text><rect x="1412.921" y="1189.948" width="188.968" height="50.495" fill="#E2E2F0" style="stroke:#181818;stroke-width:0.833;" rx="10" ry="10"/><text x="1424.588" y="1223.273" fill="#172033" font-size="23.333" textLength="165.635" font-family="'Hiragino Sans GB'">AgentRegistry</text><rect x="1618.556" y="1189.948" width="165.692" height="50.495" fill="#E2E2F0" style="stroke:#181818;stroke-width:0.833;" rx="10" ry="10"/><text x="1630.223" y="1223.273" fill="#172033" font-size="23.333" textLength="142.358" font-family="'Hiragino Sans GB'">RunRegistry</text><rect x="1803.843" y="1189.948" width="185.938" height="50.495" fill="#E2E2F0" style="stroke:#181818;stroke-width:0.833;" rx="10" ry="10"/><text x="1815.51" y="1223.273" fill="#172033" font-size="23.333" textLength="162.604" font-family="'Hiragino Sans GB'">RunScheduler</text><rect x="2257.491" y="1189.948" width="240.01" height="50.495" fill="#E2E2F0" style="stroke:#181818;stroke-width:0.833;" rx="10" ry="10"/><text x="2269.158" y="1223.273" fill="#172033" font-size="23.333" textLength="216.676" font-family="'Hiragino Sans GB'">AgentRuntimePool</text><rect x="2563.733" y="1189.948" width="190.905" height="50.495" fill="#E2E2F0" style="stroke:#181818;stroke-width:0.833;" rx="10" ry="10"/><text x="2575.399" y="1223.273" fill="#172033" font-size="23.333" textLength="167.572" font-family="'Hiragino Sans GB'">AgentRuntime</text><rect x="3073.273" y="1189.948" width="185.379" height="50.495" fill="#E2E2F0" style="stroke:#181818;stroke-width:0.833;" rx="10" ry="10"/><text x="3084.94" y="1223.273" fill="#172033" font-size="23.333" textLength="162.046" font-family="'Hiragino Sans GB'">AgentAdapter</text><rect x="3275.319" y="1189.948" width="178.703" height="50.495" fill="#E2E2F0" style="stroke:#181818;stroke-width:0.833;" rx="10" ry="10"/><text x="3286.985" y="1223.273" fill="#172033" font-size="23.333" textLength="155.369" font-family="'Hiragino Sans GB'">Event Journal</text><rect x="3470.688" y="1189.948" width="313.861" height="50.495" fill="#E2E2F0" style="stroke:#181818;stroke-width:0.833;" rx="10" ry="10"/><text x="3482.355" y="1223.273" fill="#172033" font-size="23.333" textLength="290.527" font-family="'Hiragino Sans GB'">AgentEventPublisherPort</text><polygon points="446.849,245.938,463.515,252.604,446.849,259.271,453.515,252.604" fill="#334155" style="stroke:#334155;stroke-width:1.667;stroke-linejoin:miter;stroke-miterlimit:10;"/><line x1="68.333" y1="252.604" x2="456.849" y2="252.604" style="stroke:#334155;stroke-width:1.667;"/><text x="88.333" y="244.554" fill="#172033" font-size="20" textLength="358.516" font-family="'Hiragino Sans GB'">submit(command, externalContext)</text><line x1="466.849" y1="299.219" x2="536.849" y2="299.219" style="stroke:#334155;stroke-width:1.667;"/><line x1="536.849" y1="299.219" x2="536.849" y2="320.885" style="stroke:#334155;stroke-width:1.667;"/><line x1="468.515" y1="320.885" x2="536.849" y2="320.885" style="stroke:#334155;stroke-width:1.667;"/><polygon points="485.182,314.219,468.515,320.885,485.182,327.552,478.515,320.885" fill="#334155" style="stroke:#334155;stroke-width:1.667;stroke-linejoin:miter;stroke-miterlimit:10;"/><text x="478.515" y="291.169" fill="#172033" font-size="20" textLength="329.805" font-family="'Hiragino Sans GB'">编译 AgentExecutionEnvelopeRef</text><polygon points="997.581,360.833,1014.248,367.5,997.581,374.167,1004.248,367.5" fill="#334155" style="stroke:#334155;stroke-width:1.667;stroke-linejoin:miter;stroke-miterlimit:10;"/><line x1="466.849" y1="367.5" x2="1007.581" y2="367.5" style="stroke:#334155;stroke-width:1.667;"/><text x="486.849" y="359.45" fill="#172033" font-size="20" textLength="510.732" font-family="'Hiragino Sans GB'">RunCommandPort.submit(command, envelopeRef)</text><polygon points="1487.405,407.448,1504.072,414.115,1487.405,420.781,1494.072,414.115" fill="#334155" style="stroke:#334155;stroke-width:1.667;stroke-linejoin:miter;stroke-miterlimit:10;"/><line x1="1017.581" y1="414.115" x2="1497.405" y2="414.115" style="stroke:#334155;stroke-width:1.667;"/><text x="1037.581" y="406.064" fill="#172033" font-size="20" textLength="449.824" font-family="'Hiragino Sans GB'">resolve(definitionVersion, capabilityRequest)</text><polygon points="1035.915,454.063,1019.248,460.729,1035.915,467.396,1029.248,460.729" fill="#334155" style="stroke:#334155;stroke-width:1.667;stroke-linejoin:miter;stroke-miterlimit:10;"/><line x1="1025.915" y1="460.729" x2="1505.739" y2="460.729" style="stroke:#334155;stroke-width:1.667;stroke-dasharray:3.333,3.333;"/><text x="1186.268" y="452.679" fill="#172033" font-size="20" textLength="152.451" font-family="'Hiragino Sans GB'">RouteSnapshot</text><polygon points="1681.402,500.677,1698.069,507.344,1681.402,514.01,1688.069,507.344" fill="#334155" style="stroke:#334155;stroke-width:1.667;stroke-linejoin:miter;stroke-miterlimit:10;"/><line x1="1017.581" y1="507.344" x2="1691.402" y2="507.344" style="stroke:#334155;stroke-width:1.667;"/><text x="1140.629" y="499.294" fill="#172033" font-size="20" textLength="437.725" font-family="'Hiragino Sans GB'">accept(trigger, route, budget, envelopeRef)</text><polygon points="3344.67,547.292,3361.337,553.958,3344.67,560.625,3351.337,553.958" fill="#334155" style="stroke:#334155;stroke-width:1.667;stroke-linejoin:miter;stroke-miterlimit:10;"/><line x1="1701.402" y1="553.958" x2="3354.67" y2="553.958" style="stroke:#334155;stroke-width:1.667;"/><text x="2433.475" y="545.908" fill="#172033" font-size="20" textLength="199.122" font-family="'Hiragino Sans GB'">持久化 RunAccepted</text><polygon points="1719.735,593.906,1703.069,600.573,1719.735,607.24,1713.069,600.573" fill="#334155" style="stroke:#334155;stroke-width:1.667;stroke-linejoin:miter;stroke-miterlimit:10;"/><line x1="1709.735" y1="600.573" x2="3363.004" y2="600.573" style="stroke:#334155;stroke-width:1.667;stroke-dasharray:3.333,3.333;"/><text x="2478.817" y="592.523" fill="#172033" font-size="20" textLength="108.438" font-family="'Hiragino Sans GB'">committed</text><polygon points="3607.619,640.521,3624.285,647.188,3607.619,653.854,3614.285,647.188" fill="#334155" style="stroke:#334155;stroke-width:1.667;stroke-linejoin:miter;stroke-miterlimit:10;"/><line x1="1701.402" y1="647.188" x2="3617.619" y2="647.188" style="stroke:#334155;stroke-width:1.667;"/><text x="2496.791" y="639.137" fill="#172033" font-size="20" textLength="335.439" font-family="'Hiragino Sans GB'">publish(committed RunAccepted)</text><polygon points="1035.915,687.135,1019.248,693.802,1035.915,700.469,1029.248,693.802" fill="#334155" style="stroke:#334155;stroke-width:1.667;stroke-linejoin:miter;stroke-miterlimit:10;"/><line x1="1025.915" y1="693.802" x2="1699.735" y2="693.802" style="stroke:#334155;stroke-width:1.667;stroke-dasharray:3.333,3.333;"/><text x="1333.408" y="685.752" fill="#172033" font-size="20" textLength="52.168" font-family="'Hiragino Sans GB'">runId</text><polygon points="1876.812,733.75,1893.479,740.417,1876.812,747.083,1883.479,740.417" fill="#334155" style="stroke:#334155;stroke-width:1.667;stroke-linejoin:miter;stroke-miterlimit:10;"/><line x1="1701.402" y1="740.417" x2="1886.812" y2="740.417" style="stroke:#334155;stroke-width:1.667;"/><text x="1721.402" y="732.367" fill="#172033" font-size="20" textLength="155.41" font-family="'Hiragino Sans GB'">enqueue(runId)</text><polygon points="2357.496,780.365,2374.162,787.031,2357.496,793.698,2364.162,787.031" fill="#334155" style="stroke:#334155;stroke-width:1.667;stroke-linejoin:miter;stroke-miterlimit:10;"/><line x1="1896.812" y1="787.031" x2="2367.496" y2="787.031" style="stroke:#334155;stroke-width:1.667;"/><text x="1916.812" y="778.981" fill="#172033" font-size="20" textLength="440.684" font-family="'Hiragino Sans GB'">dispatch(runId, runtimeLease, envelopeRef)</text><polygon points="2639.185,826.979,2655.852,833.646,2639.185,840.313,2645.852,833.646" fill="#334155" style="stroke:#334155;stroke-width:1.667;stroke-linejoin:miter;stroke-miterlimit:10;"/><line x1="2377.496" y1="833.646" x2="2649.185" y2="833.646" style="stroke:#334155;stroke-width:1.667;"/><text x="2397.496" y="825.596" fill="#172033" font-size="20" textLength="241.689" font-family="'Hiragino Sans GB'">execute(attempt, lease)</text><polygon points="3145.963,873.594,3162.629,880.26,3145.963,886.927,3152.629,880.26" fill="#334155" style="stroke:#334155;stroke-width:1.667;stroke-linejoin:miter;stroke-miterlimit:10;"/><line x1="2659.185" y1="880.26" x2="3155.963" y2="880.26" style="stroke:#334155;stroke-width:1.667;"/><text x="2679.185" y="872.21" fill="#172033" font-size="20" textLength="466.777" font-family="'Hiragino Sans GB'">AgentAdapterPort.executeTurn(contextFrame)</text><polygon points="2677.519,920.208,2660.852,926.875,2677.519,933.542,2670.852,926.875" fill="#334155" style="stroke:#334155;stroke-width:1.667;stroke-linejoin:miter;stroke-miterlimit:10;"/><line x1="2667.519" y1="926.875" x2="3164.296" y2="926.875" style="stroke:#334155;stroke-width:1.667;stroke-dasharray:3.333,3.333;"/><text x="2807.969" y="918.825" fill="#172033" font-size="20" textLength="209.21" font-family="'Hiragino Sans GB'">规范化 AgentEvent 流</text><polygon points="1719.735,966.823,1703.069,973.49,1719.735,980.156,1713.069,973.49" fill="#334155" style="stroke:#334155;stroke-width:1.667;stroke-linejoin:miter;stroke-miterlimit:10;"/><line x1="1709.735" y1="973.49" x2="2657.519" y2="973.49" style="stroke:#334155;stroke-width:1.667;"/><text x="1971.065" y="965.439" fill="#172033" font-size="20" textLength="418.457" font-family="'Hiragino Sans GB'">RunExecutionPort.appendStep / complete</text><polygon points="3344.67,1013.438,3361.337,1020.104,3344.67,1026.771,3351.337,1020.104" fill="#334155" style="stroke:#334155;stroke-width:1.667;stroke-linejoin:miter;stroke-miterlimit:10;"/><line x1="1701.402" y1="1020.104" x2="3354.67" y2="1020.104" style="stroke:#334155;stroke-width:1.667;"/><text x="2443.035" y="1012.054" fill="#172033" font-size="20" textLength="180.001" font-family="'Hiragino Sans GB'">先持久化事件与状态</text><polygon points="1719.735,1060.052,1703.069,1066.719,1719.735,1073.385,1713.069,1066.719" fill="#334155" style="stroke:#334155;stroke-width:1.667;stroke-linejoin:miter;stroke-miterlimit:10;"/><line x1="1709.735" y1="1066.719" x2="3363.004" y2="1066.719" style="stroke:#334155;stroke-width:1.667;stroke-dasharray:3.333,3.333;"/><text x="2478.817" y="1058.669" fill="#172033" font-size="20" textLength="108.438" font-family="'Hiragino Sans GB'">committed</text><polygon points="3607.619,1106.667,3624.285,1113.333,3607.619,1120,3614.285,1113.333" fill="#334155" style="stroke:#334155;stroke-width:1.667;stroke-linejoin:miter;stroke-miterlimit:10;"/><line x1="1701.402" y1="1113.333" x2="3617.619" y2="1113.333" style="stroke:#334155;stroke-width:1.667;"/><text x="2553.084" y="1105.283" fill="#172033" font-size="20" textLength="222.852" font-family="'Hiragino Sans GB'">提交后发布 AgentEvent</text><polygon points="86.666,1153.281,70,1159.948,86.666,1166.615,80,1159.948" fill="#334155" style="stroke:#334155;stroke-width:1.667;stroke-linejoin:miter;stroke-miterlimit:10;"/><line x1="76.666" y1="1159.948" x2="3625.952" y2="1159.948" style="stroke:#334155;stroke-width:1.667;stroke-dasharray:3.333,3.333;"/><text x="1710.329" y="1151.898" fill="#172033" font-size="20" textLength="275.293" font-family="'Hiragino Sans GB'">event stream / subscription</text><?plantuml-src bPGxJnj14CVx-nGRAYFPfaYN8X92v5qWEw9VtmtsIdTxctqGwB084X3BG0eYqI4b8HrfWWZnjudlSCTNoEpUmpvmYbGtv_dD_ETrViIu7ve0IBEvf7iGGLEOAFGqqo6GvFWoEVnEbhl0TSlmkz5PEloQ77t-izEV_DXDRhwDhuVfmSNaV70tsbz_V3Swy3pgwrYIXV7rMN9uVZiwJOUV5WXLP8M68KXFKAcPpmJbcYoy1iaXV14hxH1hL06dtDvM6gBdLCDxkkt0t9x3jg3Bb9OPLhnKEMoaIXck7X1jlmU1mO8TKhxDKpHSimZMuZXqh3N-ZHMArfv3BGTKw5mqjwlKwYPIv5Li9AUPNcxFIURODTC9cUg1N8jbDkNo5y_BTa8QJzteoHEYJ2TYkkR7KKHvK2UmXHLWzfMOQxGNFSTDUTplvF8aEv3LBV2DPZ5VvPiGnW9Qi57o-SOm19jVoTBRYfeF5AV1YruHXGcAbM462IeEDw4Mm0RZp2gkWrJug1EV2jfX8TFRBNXdG675PM2ZMaPiDBGv5QeNwueGdWFwgU-3q3KjMRSBiawavUkaOu8kw7jbkX0CpLU1qUcWF_wrbmnERRfbbme2h_0tfZAsRwQjiqXIhWUz8hDh9JMRhj2jj2KDVpdDLTujUe3ZG0pK7B7eJLrM4syMaO0fGRNVovYwJMRlz0rG1VTQTX5P6nQn-TtweKQnpaZWY48Rvefq1CBvHICyU-pk3FBejpWWxDOTspD98umlWXeLjSd5XybWrmvuUkea_TcVbSj7Z8_oD9qM5G9uqDOWo99TW0X1mvmb9dlxvHx7Dn_7lw_mx-xsy2hTwV__AjEZu_7Db-Huc1oT9DUxCsLxKyncoxz97AZh2KyNQ8I5ueUYVCc4RUCl?></g></svg>