<svg xmlns="http://www.w3.org/2000/svg" xmlns:xlink="http://www.w3.org/1999/xlink" version="1.1" data-diagram-type="DESCRIPTION" style="width:2043px;height:1786px;background:#FFFFFF;" width="2043.333px" height="1786.667px" viewBox="0 0 2043 1786" zoomAndPan="magnify" preserveAspectRatio="none" contentStyleType="text/css"><?plantuml 1.2026.7?><defs/><g font-family="sans-serif" lengthAdjust="spacing"><g class="title" data-source-line="2"><text x="747.955" y="38.325" fill="#172033" font-size="23.333" textLength="536.495" font-weight="700" font-family="'Hiragino Sans GB'">LawClaw Agent Kernel 系统上下文与上层边界</text></g><!--entity USER--><g class="entity" data-qualified-name="USER" id="ent0001" data-source-line="6"><ellipse cx="573.333" cy="85.495" rx="13.333" ry="13.333" fill="#F1F1F1" style="stroke:#181818;stroke-width:0.833;"/><path d="M573.333,98.828 L573.333,143.828 M551.666,112.161 L595,112.161 M573.333,143.828 L551.666,168.828 M573.333,143.828 L595,168.828" style="stroke:#181818;stroke-width:0.833;" fill="none"/><text x="526.667" y="192.987" fill="#172033" font-size="23.333" textLength="93.333" font-family="'Hiragino Sans GB'">终端用户</text></g><!--entity BACKEND--><g class="entity" data-qualified-name="BACKEND" id="ent0002" data-source-line="7"><rect x="383.25" y="290.145" width="380.154" height="114.818" fill="#F8FAFC" style="stroke:#181818;stroke-width:0.833;" rx="10" ry="10"/><text x="399.917" y="328.47" fill="#172033" font-size="23.333" textLength="178.019" font-family="'Hiragino Sans GB'">Backend 接入层</text><text x="399.917" y="355.631" fill="#172033" font-size="23.333" textLength="346.821" font-family="'Hiragino Sans GB'">认证 / RBAC / Tenant Resolver</text><text x="399.917" y="382.793" fill="#172033" font-size="23.333" textLength="209.999" font-family="'Hiragino Sans GB'">（可信上下文来源）</text></g><!--entity ORCH--><g class="entity" data-qualified-name="ORCH" id="ent0003" data-source-line="8"><rect x="360.067" y="496.628" width="426.536" height="141.979" fill="#FCE8D5" style="stroke:#181818;stroke-width:0.833;" rx="10" ry="10"/><text x="376.733" y="534.953" fill="#172033" font-size="23.333" textLength="163.333" font-family="'Hiragino Sans GB'">业务编排子系统</text><text x="376.733" y="562.115" fill="#172033" font-size="23.333" textLength="393.202" font-family="'Hiragino Sans GB'">工作流 / 业务状态机 / ApprovalCase</text><text x="376.733" y="589.276" fill="#172033" font-size="23.333" textLength="209.361" font-family="'Hiragino Sans GB'">结果采纳 / 业务补偿</text><text x="376.733" y="616.438" fill="#172033" font-size="23.333" textLength="252.109" font-family="'Hiragino Sans GB'">（Agent Kernel 外部）</text></g><!--entity KERNEL--><g class="entity" data-qualified-name="KERNEL" id="ent0004" data-source-line="9"><rect x="389.3" y="936.761" width="368.078" height="169.141" fill="#DCEBFA" style="stroke:#181818;stroke-width:0.833;" rx="10" ry="10"/><text x="405.967" y="975.087" fill="#172033" font-size="23.333" textLength="151.359" font-family="'Hiragino Sans GB'">Agent Kernel</text><text x="405.967" y="1002.248" fill="#172033" font-size="23.333" textLength="172.14" font-family="'Hiragino Sans GB'">AgentGateway</text><text x="405.967" y="1029.41" fill="#172033" font-size="23.333" textLength="334.744" font-family="'Hiragino Sans GB'">Agent Loop / Context Engine</text><text x="405.967" y="1056.571" fill="#172033" font-size="23.333" textLength="324.388" font-family="'Hiragino Sans GB'">Tool Runtime / 单层子 Agent</text><text x="405.967" y="1083.732" fill="#172033" font-size="23.333" textLength="316.117" font-family="'Hiragino Sans GB'">Run / Session / AgentEvent</text></g><!--entity OPS--><g class="entity" data-qualified-name="OPS" id="ent0005" data-source-line="10"><rect x="723.65" y="730.278" width="242.694" height="114.818" fill="#EEE5FA" style="stroke:#181818;stroke-width:0.833;" rx="10" ry="10"/><text x="740.317" y="768.603" fill="#172033" font-size="23.333" textLength="93.333" font-family="'Hiragino Sans GB'">运维组件</text><text x="740.317" y="795.765" fill="#172033" font-size="23.333" textLength="204.052" font-family="'Hiragino Sans GB'">日志 / Trace / 指标</text><text x="740.317" y="822.926" fill="#172033" font-size="23.333" textLength="209.361" font-family="'Hiragino Sans GB'">健康检查 / 安全审计</text></g><!--entity PI_ADAPTER--><g class="entity" data-qualified-name="PI_ADAPTER" id="ent0006" data-source-line="11"><rect x="146.683" y="1197.578" width="409.981" height="114.818" fill="#D9F3F0" style="stroke:#181818;stroke-width:0.833;" rx="10" ry="10"/><text x="163.35" y="1235.903" fill="#172033" font-size="23.333" textLength="182.599" font-family="'Hiragino Sans GB'">PiAgentAdapter</text><text x="163.35" y="1263.065" fill="#172033" font-size="23.333" textLength="376.648" font-family="'Hiragino Sans GB'">Pi 类型 / Session / Event 私有映射</text><text x="163.35" y="1290.226" fill="#172033" font-size="23.333" textLength="198.959" font-family="'Hiragino Sans GB'">（Kernel 边界外）</text></g><!--entity PI--><g class="entity" data-qualified-name="PI" id="ent0007" data-source-line="12"><rect x="230.95" y="1450.045" width="241.442" height="60.495" fill="#D9F3F0" style="stroke:#181818;stroke-width:0.833;" rx="10" ry="10"/><text x="247.617" y="1488.37" fill="#172033" font-size="23.333" textLength="208.109" font-family="'Hiragino Sans GB'">Pi Runtime 0.84.4</text></g><!--entity PROVIDERS--><g class="entity" data-qualified-name="PROVIDERS" id="ent0008" data-source-line="13"><rect x="1642.6" y="977.511" width="378.137" height="87.656" fill="#D9F3F0" style="stroke:#181818;stroke-width:0.833;" rx="10" ry="10"/><text x="1659.267" y="1015.837" fill="#172033" font-size="23.333" textLength="344.804" font-family="'Hiragino Sans GB'">工具与上下文 Provider Adapter</text><text x="1659.267" y="1042.998" fill="#172033" font-size="23.333" textLength="279.361" font-family="'Hiragino Sans GB'">只读工具 / 受控上下文来源</text></g><!--entity INFRA--><g class="entity" data-qualified-name="INFRA" id="ent0009" data-source-line="14"><rect x="631.45" y="1197.578" width="327.096" height="114.818" fill="#ECEFF3" style="stroke:#181818;stroke-width:0.833;" rx="10" ry="10"/><text x="648.117" y="1235.903" fill="#172033" font-size="23.333" textLength="260.575" font-family="'Hiragino Sans GB'">Infrastructure Adapter</text><text x="648.117" y="1263.065" fill="#172033" font-size="23.333" textLength="232.056" font-family="'Hiragino Sans GB'">进程 / 传输 / 最小存储</text><text x="648.117" y="1290.226" fill="#172033" font-size="23.333" textLength="293.762" font-family="'Hiragino Sans GB'">出口 / 密钥 / 时钟 / Artifact</text></g><!--entity MODEL--><g class="entity" data-qualified-name="MODEL" id="ent0010" data-source-line="15"><path d="M1275.088,1442.019 C1280.741,1433.849 1288.357,1434.527 1293.513,1442.583 C1299.323,1431.933 1309.608,1434.175 1314.323,1443.712 C1318.246,1433.139 1326.977,1431.261 1333.763,1440.967 C1339.043,1429.064 1348.792,1430.239 1354.972,1440.09 C1360.387,1430.013 1369.451,1431.727 1375.087,1439.846 C1382.817,1431.22 1388.926,1433.393 1394.747,1442.022 C1400.922,1433.098 1409.28,1432.508 1415.554,1441.909 C1422.535,1429.841 1432.19,1432.825 1438.473,1442.639 C1449.432,1447.039 1448.098,1455.364 1440.681,1461.872 C1454.196,1463.347 1456.25,1472.711 1448.692,1482.407 C1456.41,1491.376 1452.739,1496.492 1443.211,1500.126 C1451.272,1511.125 1446.956,1518.469 1435.362,1522.604 C1430.051,1530.573 1421.027,1531.675 1416.677,1521.609 C1409.554,1532.619 1402.514,1531.993 1394.994,1522.019 C1390.786,1530.94 1384.277,1532.732 1377.097,1525.265 C1371.093,1534.488 1363.491,1537.575 1356.145,1526.663 C1347.858,1537.478 1340.986,1538.014 1333.421,1525.947 C1325.714,1536.226 1318.938,1535.25 1312.964,1524.278 C1304.736,1531.479 1298.414,1530.611 1292.637,1521.266 C1286.816,1530.59 1278.57,1529.2 1273.459,1520.512 C1264.635,1516.269 1262.398,1508.098 1270.172,1501.052 C1258.974,1496.37 1258.315,1489.206 1266.519,1480.992 C1257.139,1474.919 1260.363,1466.301 1268.961,1462.618 C1259.975,1453.326 1262.176,1444.797 1275.088,1442.019" style="stroke:#181818;stroke-width:0.833;" fill="#F8FAFC"/><text x="1283.333" y="1474.787" fill="#172033" font-size="23.333" textLength="93.333" font-family="'Hiragino Sans GB'">模型服务</text><text x="1283.333" y="1501.948" fill="#172033" font-size="23.333" textLength="139.999" font-family="'Hiragino Sans GB'">受控模型调用</text></g><g class="entity" data-qualified-name="FORBIDDEN" id="ent0023" data-source-line="29"><path d="M546.683,1414.061 L546.683,1473.195 L472.667,1479.861 L546.683,1486.528 L546.683,1546.535 A10,10 0 0 0 556.683,1556.535 L1173.325,1556.535 A10,10 0 0 0 1183.325,1546.535 L1183.325,1420.728 L1166.658,1404.061 L556.683,1404.061 A10,10 0 0 0 546.683,1414.061" style="stroke:#D97706;stroke-width:0.833;" fill="#FEE2E2"/><path d="M1166.658,1404.061 L1166.658,1415.728 A5,5 0 0 0 1171.658,1420.728 L1183.325,1420.728 L1166.658,1404.061" style="stroke:#D97706;stroke-width:0.833;" fill="#FEE2E2"/><text x="556.683" y="1434.053" fill="#172033" font-size="23.333" textLength="116.666" font-family="'Hiragino Sans GB'">禁止依赖：</text><text x="556.683" y="1461.215" fill="#172033" font-size="23.333" textLength="591.456" font-family="'Hiragino Sans GB'">- 业务编排绕过 AgentGateway 引用具体 Agent SDK；</text><text x="556.683" y="1488.376" fill="#172033" font-size="23.333" textLength="601.641" font-family="'Hiragino Sans GB'">- 子 Agent 修改 Workflow 或创建业务 ApprovalCase；</text><text x="556.683" y="1515.538" fill="#172033" font-size="23.333" textLength="465.755" font-family="'Hiragino Sans GB'">- Pi / Tool Provider 回调 Backend HTTP；</text><text x="556.683" y="1542.699" fill="#172033" font-size="23.333" textLength="556.763" font-family="'Hiragino Sans GB'">- Infrastructure 承载业务、路由或上下文裁剪规则。</text></g><g class="entity" data-qualified-name="GMN26" id="ent0027" data-source-line="38"><path d="M831.75,982.261 L831.75,1014.861 L757.967,1021.528 L831.75,1028.195 L831.75,1060.413 A10,10 0 0 0 841.75,1070.413 L1558.265,1070.413 A10,10 0 0 0 1568.265,1060.413 L1568.265,988.928 L1551.598,972.261 L841.75,972.261 A10,10 0 0 0 831.75,982.261" style="stroke:#D97706;stroke-width:0.833;" fill="#FFFBEB"/><path d="M1551.598,972.261 L1551.598,983.928 A5,5 0 0 0 1556.598,988.928 L1568.265,988.928 L1551.598,972.261" style="stroke:#D97706;stroke-width:0.833;" fill="#FFFBEB"/><text x="841.75" y="1002.253" fill="#172033" font-size="23.333" textLength="701.515" font-family="'Hiragino Sans GB'">约束：UP-AGT-001、UP-AGT-002、UP-AGT-003、UP-CTX-001</text><text x="841.75" y="1029.415" fill="#172033" font-size="23.333" textLength="508.831" font-family="'Hiragino Sans GB'">Kernel 拥有规范化执行上下文与技术父子 Run；</text><text x="841.75" y="1056.576" fill="#172033" font-size="23.333" textLength="466.665" font-family="'Hiragino Sans GB'">业务编排仍决定为何调用以及结果是否生效。</text></g><!--link USER to BACKEND--><g class="link" data-entity-1="ent0001" data-entity-2="ent0002" id="lnk11" data-source-line="17" data-link-type="dependency"><path d="M573.333,199.278 C573.333,228.128 573.333,253.561 573.333,281.561" style="stroke:#334155;stroke-width:1.667;" fill="none" id="USER-to-BACKEND"/><polygon points="573.333,289.895,580,274.895,573.333,281.561,566.667,274.895,573.333,289.895" fill="#334155" style="stroke:#334155;stroke-width:1.667;stroke-linejoin:miter;stroke-miterlimit:10;"/><text x="508.333" y="239.826" fill="#172033" font-size="20" textLength="64.404" font-family="'Hiragino Sans GB'">V2 API</text></g><!--link BACKEND to ORCH--><g class="link" data-entity-1="ent0002" data-entity-2="ent0003" id="lnk12" data-source-line="18" data-link-type="dependency"><path d="M573.333,405.378 C573.333,433.145 573.333,458.345 573.333,487.695" style="stroke:#334155;stroke-width:1.667;" fill="none" id="BACKEND-to-ORCH"/><polygon points="573.333,496.028,580,481.028,573.333,487.695,566.667,481.028,573.333,496.028" fill="#334155" style="stroke:#334155;stroke-width:1.667;stroke-linejoin:miter;stroke-miterlimit:10;"/><text x="203.224" y="422.609" fill="#172033" font-size="20" textLength="177.354" font-family="'Hiragino Sans GB'">OrchestrationPort</text><text x="11.667" y="445.89" fill="#172033" font-size="20" textLength="560.469" font-family="'Hiragino Sans GB'">可信 TenantContext + OperationContext + TimeContext</text></g><!--link ORCH to KERNEL--><g class="link" data-entity-1="ent0003" data-entity-2="ent0004" id="lnk13" data-source-line="19" data-link-type="dependency"><path d="M500.75,639.011 C500.75,719.611 500.75,842.345 500.75,928.128" style="stroke:#334155;stroke-width:1.667;" fill="none" id="ORCH-to-KERNEL"/><polygon points="500.75,936.461,507.417,921.461,500.75,928.128,494.083,921.461,500.75,936.461" fill="#334155" style="stroke:#334155;stroke-width:1.667;stroke-linejoin:miter;stroke-miterlimit:10;"/><text x="192.192" y="736.293" fill="#172033" font-size="20" textLength="147.549" font-family="'Hiragino Sans GB'">AgentGateway</text><text x="32.417" y="759.574" fill="#172033" font-size="20" textLength="467.1" font-family="'Hiragino Sans GB'">ContextSpec / ToolPolicyRef / DelegationPolicy</text><text x="186.513" y="782.855" fill="#172033" font-size="20" textLength="158.907" font-family="'Hiragino Sans GB'">启动 / 查询 / 取消</text></g><!--reverse link ORCH to KERNEL--><g class="link" data-entity-1="ent0003" data-entity-2="ent0004" id="lnk15" data-source-line="20" data-link-type="dependency"><path d="M612.2,647.345 C612.2,727.945 612.2,850.678 612.2,936.461" style="stroke:#334155;stroke-width:1.667;stroke-dasharray:11.667,11.667;" fill="none" id="ORCH-backto-KERNEL"/><polygon points="612.2,639.011,605.533,654.011,612.2,647.345,618.867,654.011,612.2,639.011" fill="#334155" style="stroke:#334155;stroke-width:1.667;stroke-linejoin:miter;stroke-miterlimit:10;"/><text x="377.722" y="807.959" fill="#172033" font-size="20" textLength="116.494" font-family="'Hiragino Sans GB'">AgentEvent</text><text x="260.533" y="831.24" fill="#172033" font-size="20" textLength="350.871" font-family="'Hiragino Sans GB'">候选结果 / 子 Run 摘要 / 技术审批信号</text></g><!--link KERNEL to PI_ADAPTER--><g class="link" data-entity-1="ent0004" data-entity-2="ent0006" id="lnk16" data-source-line="21" data-link-type="dependency"><path d="M472.983,1106.345 C472.983,1136.611 472.983,1161.645 472.983,1189.061" style="stroke:#334155;stroke-width:1.667;" fill="none" id="KERNEL-to-PI_ADAPTER"/><polygon points="472.983,1197.395,479.65,1182.395,472.983,1189.061,466.317,1182.395,472.983,1197.395" fill="#334155" style="stroke:#334155;stroke-width:1.667;stroke-linejoin:miter;stroke-miterlimit:10;"/><text x="281.869" y="1123.776" fill="#172033" font-size="20" textLength="138.896" font-family="'Hiragino Sans GB'">AgentAdapter</text><text x="231.317" y="1147.057" fill="#172033" font-size="20" textLength="240.002" font-family="'Hiragino Sans GB'">执行配置与规范化运行事件</text></g><!--link PI_ADAPTER to PI--><g class="link" data-entity-1="ent0006" data-entity-2="ent0007" id="lnk17" data-source-line="22" data-link-type="dependency"><path d="M351.667,1312.995 C351.667,1356.545 351.667,1406.145 351.667,1441.145" style="stroke:#334155;stroke-width:1.667;" fill="none" id="PI_ADAPTER-to-PI"/><polygon points="351.667,1449.478,358.333,1434.478,351.667,1441.145,345,1434.478,351.667,1449.478" fill="#334155" style="stroke:#334155;stroke-width:1.667;stroke-linejoin:miter;stroke-miterlimit:10;"/><text x="248.333" y="1376.476" fill="#172033" font-size="20" textLength="101.973" font-family="'Hiragino Sans GB'">Pi 私有 API</text></g><!--link PI to MODEL--><g class="link" data-entity-1="ent0007" data-entity-2="ent0010" id="lnk18" data-source-line="23" data-link-type="dependency"><path d="M351.667,1511.011 C351.667,1542.395 351.667,1586.528 351.667,1586.528 C351.667,1586.528 1353.333,1586.528 1353.333,1586.528 C1353.333,1586.528 1353.333,1567.878 1353.333,1541.128" style="stroke:#334155;stroke-width:1.667;" fill="none" id="PI-to-MODEL"/><polygon points="1353.333,1532.795,1346.667,1547.795,1353.333,1541.128,1360,1547.795,1353.333,1532.795" fill="#334155" style="stroke:#334155;stroke-width:1.667;stroke-linejoin:miter;stroke-miterlimit:10;"/><text x="656.617" y="1581.759" fill="#172033" font-size="20" textLength="183.545" font-family="'Hiragino Sans GB'">ModelProviderPort</text></g><!--link KERNEL to PROVIDERS--><g class="link" data-entity-1="ent0004" data-entity-2="ent0008" id="lnk19" data-source-line="24" data-link-type="dependency"><path d="M757.65,1088.195 C1107.167,1088.195 1831.667,1088.195 1831.667,1088.195 C1831.667,1088.195 1831.667,1086.328 1831.667,1073.895" style="stroke:#334155;stroke-width:1.667;" fill="none" id="KERNEL-to-PROVIDERS"/><polygon points="1831.667,1065.561,1825,1080.561,1831.667,1073.895,1838.333,1080.561,1831.667,1065.561" fill="#334155" style="stroke:#334155;stroke-width:1.667;stroke-linejoin:miter;stroke-miterlimit:10;"/><text x="1128.876" y="1108.426" fill="#172033" font-size="20" textLength="165.742" font-family="'Hiragino Sans GB'">ToolProviderPort</text><text x="1117.65" y="1131.707" fill="#172033" font-size="20" textLength="188.193" font-family="'Hiragino Sans GB'">ContextSourcePort</text></g><!--reverse link KERNEL to INFRA--><g class="link" data-entity-1="ent0004" data-entity-2="ent0009" id="lnk21" data-source-line="25" data-link-type="dependency"><path d="M694.417,1114.678 C694.417,1144.945 694.417,1169.978 694.417,1197.395" style="stroke:#334155;stroke-width:1.667;" fill="none" id="KERNEL-backto-INFRA"/><polygon points="694.417,1106.345,687.75,1121.345,694.417,1114.678,701.083,1121.345,694.417,1106.345" fill="#334155" style="stroke:#334155;stroke-width:1.667;stroke-linejoin:miter;stroke-miterlimit:10;"/><text x="696.083" y="1123.776" fill="#172033" font-size="20" textLength="287.031" font-family="'Hiragino Sans GB'">InfrastructurePort / TimePort</text><text x="713.983" y="1147.057" fill="#172033" font-size="20" textLength="251.231" font-family="'Hiragino Sans GB'">UTC 时钟 + IANA 时区投影</text></g><!--link OPS to KERNEL--><g class="link" data-entity-1="ent0005" data-entity-2="ent0004" id="lnk22" data-source-line="26" data-link-type="dependency"><path d="M740.517,845.445 C740.517,872.745 740.517,897.545 740.517,927.661" style="stroke:#334155;stroke-width:1.667;stroke-dasharray:11.667,11.667;" fill="none" id="OPS-to-KERNEL"/><polygon points="740.517,935.995,747.183,920.995,740.517,927.661,733.85,920.995,740.517,935.995" fill="#334155" style="stroke:#334155;stroke-width:1.667;stroke-linejoin:miter;stroke-miterlimit:10;"/><text x="564.859" y="862.609" fill="#172033" font-size="20" textLength="172.881" font-family="'Hiragino Sans GB'">ObservabilityPort</text><text x="562.183" y="885.89" fill="#172033" font-size="20" textLength="178.232" font-family="'Hiragino Sans GB'">OperationContext</text></g><g class="legend" data-source-line="43"><rect x="829.702" y="1623.143" width="373" height="131.979" fill="#F8FAFC" style="stroke:#CBD5E1;stroke-width:1.667;" rx="10" ry="10"/><text x="846.159" y="1656.468" fill="#172033" font-size="23.333" textLength="46.666" font-weight="700" font-family="'Hiragino Sans GB'">线型</text><text x="954.326" y="1656.468" fill="#172033" font-size="23.333" textLength="46.666" font-weight="700" font-family="'Hiragino Sans GB'">含义</text><text x="845.452" y="1683.629" fill="#172033" font-size="23.333" textLength="93.333" font-family="'Hiragino Sans GB'">实线箭头</text><text x="953.619" y="1683.629" fill="#172033" font-size="23.333" textLength="186.028" font-family="'Hiragino Sans GB'">允许的命令 / 调用</text><text x="845.452" y="1710.791" fill="#172033" font-size="23.333" textLength="93.333" font-family="'Hiragino Sans GB'">虚线箭头</text><text x="953.619" y="1710.791" fill="#172033" font-size="23.333" textLength="233.332" font-family="'Hiragino Sans GB'">事件或运维上下文传播</text><text x="845.452" y="1737.952" fill="#172033" font-size="23.333" textLength="93.333" font-family="'Hiragino Sans GB'">红色标记</text><text x="953.619" y="1737.952" fill="#172033" font-size="23.333" textLength="93.333" font-family="'Hiragino Sans GB'">禁止依赖</text><line x1="838.035" y1="1634.809" x2="1194.369" y2="1634.809" style="stroke:#172033;stroke-width:1.667;"/><line x1="838.035" y1="1661.971" x2="1194.369" y2="1661.971" style="stroke:#172033;stroke-width:1.667;"/><line x1="838.035" y1="1689.132" x2="1194.369" y2="1689.132" style="stroke:#172033;stroke-width:1.667;"/><line x1="838.035" y1="1716.294" x2="1194.369" y2="1716.294" style="stroke:#172033;stroke-width:1.667;"/><line x1="838.035" y1="1743.455" x2="1194.369" y2="1743.455" style="stroke:#172033;stroke-width:1.667;"/><line x1="838.035" y1="1634.809" x2="838.035" y2="1743.455" style="stroke:#172033;stroke-width:1.667;"/><line x1="946.202" y1="1634.809" x2="946.202" y2="1743.455" style="stroke:#172033;stroke-width:1.667;"/><line x1="1194.369" y1="1634.809" x2="1194.369" y2="1743.455" style="stroke:#172033;stroke-width:1.667;"/></g><?plantuml-src TLPTRn9P6BwVNt6sjmPqNIysJNOJ15JIMWXGrsIxCIESjXEdCsGwj6lY1MWhq6-h_R2jRT7I4asXNRKVKCgFSSwPwPL_OTypPu31n1kOzypx_JxFU-ONIKd8wIH6-YWUmzvKUamMT4cNCUeN9_soE8by8rZHKH_M52mZytFThEyOPpF6sInTpHbd2_1CZfzRb-VcofmWw6eAwIfwhEgwEeQIaeOJkgGgWY0cT5L3FMOzRtwgcc_AD7_QWyHnD1WBHWMc9IeZ4BJdjfXuWfKaeWibCbq2pqEALTcpgbbq7KLl-_pm5yUA21b5yRWgJs1jIFb-aIUBLQDPRET5tvLeRUdxHS6E0MPzmO40wlS_2ZwC1wC3ldvtIEDiWymKpOjLkh1C3fTuYKCAEIqPZItwbKLsL6PEQ2PBjsfmuakbD7L2bFtYE1vIpFfhkhrrbSkPjSzjTQjO8jccdLvN3ydUwjMBSYkvSDH_ZsN6_eEnUDGN3uK7tEcvROSKMxehwdXIVEf8g5-5hbz7VbNHyRyw2YeZaW99nLLLHj6qeajZ65wJ-HLe9nJ89pgam2iuZk7nSPWGAuaT1oVWnqwi3neLx6UfyITtJbPpoQn_CUjJHlraIA5h9T9SOvFHn0GBHUToT3S7BSoMIEsKViZGdHBBe58WqsLIALgL8gyz4hDBZmHvsJ5tZ8Xa9-HBYYcTJJaY8VEuJhPdkvAsyqNc0OobGDTtoT6KtN2drHoMqF1MjoEXHxw0Bm8WO86Tn-wexPRTyFv-otlBCVk9Ee24J9zo6d3eeGZWGafY3RKp9uiVhMgTgx8sBAxHXOCViCh3HCCFGe5WDFQJQ25bM1F7TIsTqDCQxWImcfjccVN5kDYrBb-p2MnboD4YELmdpykGGAv65Z-mqDMNLyji57Jjv6fvXmrTqwLX8ASTFpHm9-fZiUq70EEWFpuO3Ge9MKqdKGyj5w7zT6iUmCsgOcNmC-le1N3Qzd4_7E2eQLDDO1n7dgGwgNZ-R9En5psuYNoHaD0wQ2dOXEX5OIqnYg5MaUsFYAhfB28ZkSF_5jgleN0ASwtEKHpcvqY2xQ_bt05rB-hcaQCRI-44Wp4G9wBAKk9f50-37C0o7d7oOAUGoLALp9HP7tTALlMzFTHLUf8N7FzURphbRPVI8HPOPjvUPGfyNp0pe2FZ8NsrRkspJKDdCdIh2XoXXNCebYoUjdosId11s77TnW4j75Z5kQlfURDH0KnQ1rFMt0iojmfqXNEZDWjq5Lps7PVWYl7Bff4z5JZoQDB8g0wl-KXxqNqrYUKMlDb8sgcrD3i0xkLTT2btkgocjGIsxJdWFEcKUpJTA6TwR2OmKUvbCEvlmVSQ2la6V4mYSpKwiq8QnmBRALwlortuyJZM9iJ7aYpfJxcB7n4Z28ggOuRUE-7exL0W41nW20xu1ku20H4ozxFqyBrn-Sxw2fja0quyo7rhcFKLgvdhmXGY5oj02ROS6g-TEpGMwFj-iMbRjzSmCfeL-kOS_QLgJuPbTHBH_2h9Rv9wZGVekcXQrZ0gZjBEiY6Rsq12rBe-xyNZaPRs3rk35ffMey6zVyjahLEuZeyXQdiXMH-ofF0Hm4FoRxzbdWlC7-kFq6cEv-zHAPd4oZyo7hRd7d9QQ0C1gSDE-rdlQllqtGvqRJ3YyTsDUsxS-1MYjeMRRk4tBlZZ3vaQ63jhdCwM09TjE7EOkpz2E6lC_8d39rwwUqH6VPwy_4mg6yPPpMYiy8Lbr4jaSOQJaQvNoTA--MQ7hkIxgXQ0_4pWtpJWzjaVK5IJNKJmH9O-6US5z8oTmmMt3M_CoY7P-yB4wQnLEJCtfiYhXb7VWvdni8wszNR3hStf2OFWbskdl8jTkdpes9YrzrRXFxXShSeH4rt010r8aoVxFm00?></g></svg>